
<!-- Generator: visioncortex VTracer 0.6.4 -->
<svg version="1.1" xmlns="http://www.w3.org/2000/svg" viewBox="0 0 313 83" preserveAspectRatio="xMidYMid meet">
<path d="M0 0 C103.29 0 206.58 0 313 0 C313 27.39 313 54.78 313 83 C209.71 83 106.42 83 0 83 C0 55.61 0 28.22 0 0 Z " fill="#E3272E" transform="translate(0,0)"/>
<path d="M0 0 C2.062 2.063 2.062 2.063 3 5 C2.688 8.875 2.688 8.875 2.309 10.945 C1.884 13.274 1.884 13.274 2.25 16.75 C2 20 2 20 0.25 22.5 C-4.112 24.513 -7.363 23.936 -12.059 23.359 C-15.158 22.92 -15.158 22.92 -18.938 23 C-21.789 23 -24.237 22.67 -27 22 C-27.99 23.485 -27.99 23.485 -29 25 C-28.01 25.66 -27.02 26.32 -26 27 C-26.495 29.475 -26.495 29.475 -27 32 C-28.98 32 -30.96 32 -33 32 C-33 32.99 -33 33.98 -33 35 C-31.02 35 -29.04 35 -27 35 C-27.33 36.65 -27.66 38.3 -28 40 C-29.65 40 -31.3 40 -33 40 C-33 40.99 -33 41.98 -33 43 C-31.35 43 -29.7 43 -28 43 C-27.438 44.938 -27.438 44.938 -27 47 C-28.738 48.738 -31.079 48.172 -33.438 48.188 C-34.426 48.202 -35.415 48.216 -36.434 48.23 C-39 48 -39 48 -41 46 C-41.125 42.875 -41.125 42.875 -41 40 C-42.65 40.66 -44.3 41.32 -46 42 C-46.144 43.134 -46.289 44.269 -46.438 45.438 C-47 49 -47 49 -48 50 C-50.339 49.713 -52.674 49.381 -55 49 C-56.125 43.25 -56.125 43.25 -55 41 C-57.31 41 -59.62 41 -62 41 C-62.33 43.31 -62.66 45.62 -63 48 C-64.65 48 -66.3 48 -68 48 C-68.66 46.68 -69.32 45.36 -70 44 C-70.309 44.598 -70.619 45.196 -70.938 45.812 C-74.048 49.111 -77.495 50.519 -82 51 C-84.332 50.223 -86.134 49.244 -88.176 47.883 C-89.973 46.811 -89.973 46.811 -92.043 47.242 C-94.269 48.023 -94.269 48.023 -97 50 C-101.768 50.695 -105.756 50.741 -109.938 48.25 C-114.935 42.798 -114.935 42.798 -115.215 39.344 C-114.465 31.658 -114.465 31.658 -112.188 28.438 C-107.045 25.058 -103.121 24.271 -97 25 C-93.438 26.5 -93.438 26.5 -91 28 C-89.68 26.68 -88.36 25.36 -87 24 C-88.265 24.052 -88.265 24.052 -89.555 24.105 C-90.65 24.133 -91.746 24.16 -92.875 24.188 C-94.511 24.24 -94.511 24.24 -96.18 24.293 C-97.11 24.196 -98.041 24.1 -99 24 C-101 21 -101 21 -100.625 18.812 C-100.419 18.214 -100.213 17.616 -100 17 C-100.639 16.732 -101.279 16.464 -101.938 16.188 C-104 15 -104 15 -105 12 C-105.66 12 -106.32 12 -107 12 C-107 15.3 -107 18.6 -107 22 C-108.98 22.33 -110.96 22.66 -113 23 C-113 15.74 -113 8.48 -113 1 C-111.35 1 -109.7 1 -108 1 C-105.688 3.5 -105.688 3.5 -104 6 C-101.731 4.983 -100.213 4.261 -98.625 2.312 C-97 1 -97 1 -93.812 1.312 C-92.884 1.539 -91.956 1.766 -91 2 C-90.67 4.31 -90.34 6.62 -90 9 C-88.032 8.969 -88.032 8.969 -86 8 C-84.695 5.004 -84.695 5.004 -84 2 C-82.35 2 -80.7 2 -79 2 C-76.69 6.62 -74.38 11.24 -72 16 C-71.856 13.731 -71.711 11.462 -71.562 9.125 C-71.125 2.25 -71.125 2.25 -70 0 C-68.042 -0.054 -66.084 -0.093 -64.125 -0.125 C-62.489 -0.16 -62.489 -0.16 -60.82 -0.195 C-58 0 -58 0 -56 2 C-54.324 1.72 -52.658 1.374 -51 1 C-48.606 0.884 -46.209 0.825 -43.812 0.812 C-42.581 0.798 -41.35 0.784 -40.082 0.77 C-37 1 -37 1 -35 3 C-34.77 5.059 -34.77 5.059 -34.812 7.438 C-34.819 8.22 -34.825 9.002 -34.832 9.809 C-35 12 -35 12 -36 15 C-35.34 15 -34.68 15 -34 15 C-33.818 14.408 -33.636 13.817 -33.449 13.207 C-30.574 4.168 -30.574 4.168 -28 1 C-25.5 0 -25.5 0 -23 0 C-20.343 2.124 -19.142 4.471 -17.812 7.562 C-17.468 8.348 -17.124 9.133 -16.77 9.941 C-16 12 -16 12 -16 14 C-15.34 13.67 -14.68 13.34 -14 13 C-14.104 11.987 -14.104 11.987 -14.211 10.953 C-14.378 8.206 -14.401 5.725 -14 3 C-9.606 -1.724 -5.85 -1.63 0 0 Z " fill="#BE3B40" transform="translate(199,17)"/>
<path d="M0 0 C6.729 4.34 12.975 10.018 15.188 17.938 C16.171 25.933 15.71 33.12 11.188 39.938 C6.518 45.884 0.985 50.294 -6.637 51.316 C-14.765 51.639 -21.88 50.408 -28.105 44.914 C-34.699 37.876 -37.447 31.685 -37.156 22 C-36.312 14.483 -33.43 8.472 -27.781 3.41 C-19.64 -2.68 -9.353 -4.812 0 0 Z " fill="#FCF5F3" transform="translate(59.8125,17.0625)"/>
<path d="M0 0 C3.375 -0.188 3.375 -0.188 7 0 C7.66 0.99 8.32 1.98 9 3 C9.66 2.34 10.32 1.68 11 1 C15.053 0.655 16.548 0.698 20 3 C20.804 2.505 21.609 2.01 22.438 1.5 C26.72 -0.303 30.403 -0.674 35 0 C35.99 0.66 36.98 1.32 38 2 C40.254 2.204 40.254 2.204 42.625 2.062 C44.082 2.008 45.542 1.98 47 2 C48.941 3.941 48.399 7.473 48.562 10.062 C48.646 11.353 48.73 12.643 48.816 13.973 C48.877 14.972 48.938 15.971 49 17 C49.99 17.33 50.98 17.66 52 18 C52 12.72 52 7.44 52 2 C56.94 0.024 57.38 -0.124 62 1 C62.66 0.67 63.32 0.34 64 0 C67.516 -0.135 70.719 -0.05 74.188 0.562 C77.054 1.008 78.269 0.723 81 0 C87.224 -0.415 91.274 0.546 97 3 C96.67 4.32 96.34 5.64 96 7 C94.02 7.33 92.04 7.66 90 8 C89.34 10.31 88.68 12.62 88 15 C86.35 15 84.7 15 83 15 C83 15.99 83 16.98 83 18 C85.31 18 87.62 18 90 18 C89.505 20.475 89.505 20.475 89 23 C85.04 23 81.08 23 77 23 C77 22.34 77 21.68 77 21 C76.34 21 75.68 21 75 21 C74.505 22.485 74.505 22.485 74 24 C67.967 25.012 63.935 24.745 58 23 C55.967 23.85 55.967 23.85 54 25 C49.809 25.299 46.534 25.447 43 23 C42.505 22.01 42.505 22.01 42 21 C41.464 21.268 40.928 21.536 40.375 21.812 C39.591 22.204 38.808 22.596 38 23 C37.051 23.557 36.102 24.114 35.125 24.688 C31.423 26.242 29.811 26.135 26 25 C23.125 23.562 23.125 23.562 21 22 C21 21.34 21 20.68 21 20 C20.01 20 19.02 20 18 20 C17.67 21.32 17.34 22.64 17 24 C15.25 24.688 15.25 24.688 13 25 C10.75 23.562 10.75 23.562 9 22 C8.608 22.495 8.216 22.99 7.812 23.5 C6 25 6 25 3.438 25.312 C1 25 1 25 -1 23 C-1.243 20.985 -1.243 20.985 -1.23 18.535 C-1.229 17.653 -1.227 16.77 -1.225 15.861 C-1.206 14.476 -1.206 14.476 -1.188 13.062 C-1.187 12.143 -1.186 11.223 -1.186 10.275 C-1.141 3.422 -1.141 3.422 0 0 Z " fill="#C2464A" transform="translate(195,42)"/>
<path d="M0 0 C2.062 2.062 2.062 2.062 3 5 C2.688 8.875 2.688 8.875 2.309 10.945 C1.884 13.274 1.884 13.274 2.25 16.75 C2 20 2 20 0.25 22.5 C-4.112 24.513 -7.363 23.936 -12.059 23.359 C-15.158 22.92 -15.158 22.92 -18.938 23 C-21.789 23 -24.237 22.67 -27 22 C-27.66 22.99 -28.32 23.98 -29 25 C-28.34 25.66 -27.68 26.32 -27 27 C-30.96 27 -34.92 27 -39 27 C-39 26.67 -39 26.34 -39 26 C-35.535 25.505 -35.535 25.505 -32 25 C-34.261 23.744 -35.982 23.003 -38.562 22.625 C-41.625 21.84 -42.383 20.639 -44 18 C-44.392 18.825 -44.784 19.65 -45.188 20.5 C-45.786 21.325 -46.384 22.15 -47 23 C-49.613 23.156 -49.613 23.156 -52 23 C-52.029 19.521 -52.047 16.042 -52.062 12.562 C-52.071 11.569 -52.079 10.576 -52.088 9.553 C-52.091 8.608 -52.094 7.664 -52.098 6.691 C-52.103 5.817 -52.108 4.942 -52.114 4.041 C-52 2 -52 2 -51 1 C-48.69 0.874 -46.376 0.824 -44.062 0.812 C-42.795 0.798 -41.528 0.784 -40.223 0.77 C-37 1 -37 1 -35 3 C-34.77 5.059 -34.77 5.059 -34.812 7.438 C-34.819 8.22 -34.825 9.002 -34.832 9.809 C-35 12 -35 12 -36 15 C-35.34 15 -34.68 15 -34 15 C-33.818 14.408 -33.636 13.817 -33.449 13.207 C-30.574 4.168 -30.574 4.168 -28 1 C-25.5 0 -25.5 0 -23 0 C-20.343 2.124 -19.142 4.471 -17.812 7.562 C-17.468 8.348 -17.124 9.133 -16.77 9.941 C-16 12 -16 12 -16 14 C-15.34 13.67 -14.68 13.34 -14 13 C-14.104 11.987 -14.104 11.987 -14.211 10.953 C-14.378 8.206 -14.401 5.725 -14 3 C-9.606 -1.724 -5.85 -1.63 0 0 Z " fill="#C03C42" transform="translate(199,17)"/>
<path d="M0 0 C1.65 0 3.3 0 5 0 C7.312 2.5 7.312 2.5 9 5 C11.269 3.983 12.787 3.261 14.375 1.312 C16 0 16 0 19.188 0.312 C20.116 0.539 21.044 0.766 22 1 C22.33 3.31 22.66 5.62 23 8 C23.99 7.67 24.98 7.34 26 7 C25.57 9.579 25.14 11.728 23.938 14.062 C22.71 16.241 22.71 16.241 23 20 C24.32 20 25.64 20 27 20 C27.33 19.34 27.66 18.68 28 18 C30.31 18 32.62 18 35 18 C35.495 18.99 35.495 18.99 36 20 C37.98 19.67 39.96 19.34 42 19 C40.25 22.875 40.25 22.875 38 24 C36 22.625 36 22.625 34 21 C34 20.34 34 19.68 34 19 C31.504 19.781 31.504 19.781 29 21 C28.67 21.99 28.34 22.98 28 24 C29.114 23.959 30.227 23.918 31.375 23.875 C35 24 35 24 37 26 C35.861 26.091 35.861 26.091 34.699 26.184 C33.705 26.267 32.711 26.351 31.688 26.438 C30.701 26.519 29.715 26.6 28.699 26.684 C25.906 26.918 25.906 26.918 23 28 C21.546 32.361 21.384 36.447 22 41 C23.73 44.314 23.73 44.314 27 46 C30.158 46.685 32.885 46.907 36 46 C39.587 43.275 40.843 41.639 41.926 37.23 C42.077 35.885 42.205 34.537 42.312 33.188 C42.422 32.148 42.422 32.148 42.533 31.088 C42.708 29.394 42.857 27.697 43 26 C43.33 26 43.66 26 44 26 C44.108 28.751 44.187 31.498 44.25 34.25 C44.3 35.416 44.3 35.416 44.352 36.605 C44.45 42.377 44.45 42.377 42.25 45.422 C38.689 47.92 35.363 49.527 31 50 C28.67 49.222 26.865 48.243 24.824 46.883 C23.027 45.811 23.027 45.811 20.957 46.242 C18.731 47.023 18.731 47.023 16 49 C11.232 49.695 7.244 49.741 3.062 47.25 C-1.935 41.798 -1.935 41.798 -2.215 38.344 C-1.465 30.658 -1.465 30.658 0.812 27.438 C5.955 24.058 9.879 23.271 16 24 C19.562 25.5 19.562 25.5 22 27 C23.32 25.68 24.64 24.36 26 23 C24.735 23.052 24.735 23.052 23.445 23.105 C22.35 23.133 21.254 23.16 20.125 23.188 C18.489 23.24 18.489 23.24 16.82 23.293 C15.89 23.196 14.959 23.1 14 23 C12 20 12 20 12.375 17.812 C12.581 17.214 12.787 16.616 13 16 C12.361 15.732 11.721 15.464 11.062 15.188 C9 14 9 14 8 11 C7.34 11 6.68 11 6 11 C6 14.3 6 17.6 6 21 C4.02 21.33 2.04 21.66 0 22 C0 14.74 0 7.48 0 0 Z M44 25 C48 26 48 26 48 26 Z " fill="#C1474B" transform="translate(86,18)"/>
<path d="M0 0 C3.375 -0.188 3.375 -0.188 7 0 C7.66 0.99 8.32 1.98 9 3 C9.66 2.34 10.32 1.68 11 1 C15.053 0.655 16.548 0.698 20 3 C20.804 2.505 21.609 2.01 22.438 1.5 C26.72 -0.303 30.403 -0.674 35 0 C35.99 0.66 36.98 1.32 38 2 C39.32 2 40.64 2 42 2 C42.495 11.405 42.495 11.405 43 21 C41.68 21.33 40.36 21.66 39 22 C37.886 22.701 36.773 23.403 35.625 24.125 C32.95 25.697 32.113 26.002 28.875 25.938 C25.881 24.961 23.538 23.866 21 22 C21 21.34 21 20.68 21 20 C20.01 20 19.02 20 18 20 C17.67 21.32 17.34 22.64 17 24 C15.25 24.688 15.25 24.688 13 25 C10.75 23.562 10.75 23.562 9 22 C8.608 22.495 8.216 22.99 7.812 23.5 C6 25 6 25 3.438 25.312 C1 25 1 25 -1 23 C-1.243 20.985 -1.243 20.985 -1.23 18.535 C-1.229 17.653 -1.227 16.77 -1.225 15.861 C-1.206 14.476 -1.206 14.476 -1.188 13.062 C-1.187 12.143 -1.186 11.223 -1.186 10.275 C-1.141 3.422 -1.141 3.422 0 0 Z " fill="#C44145" transform="translate(195,42)"/>
<path d="M0 0 C1.32 0.99 2.64 1.98 4 3 C5.237 3.712 5.237 3.712 6.5 4.438 C10.488 6.93 13.235 9.623 15 14 C16.045 23.08 15.166 30.695 9.457 37.965 C4.799 43.007 -0.107 46.653 -7.07 47.273 C-11.303 47.324 -14.966 47.345 -19 46 C-18.67 44.68 -18.34 43.36 -18 42 C-16.989 42.062 -15.979 42.124 -14.938 42.188 C-10.426 41.973 -8.052 40.87 -4 39 C-3.01 39 -2.02 39 -1 39 C-1.681 37.886 -1.681 37.886 -2.375 36.75 C-6.341 30.039 -6.341 30.039 -5.75 25.5 C-5.619 24.371 -5.619 24.371 -5.484 23.219 C-4.976 20.89 -4.152 19.078 -3 17 C-2.01 17 -1.02 17 0 17 C0 11.39 0 5.78 0 0 Z " fill="#FDF7F6" transform="translate(60,21)"/>
<path d="M0 0 C3.725 0.027 5.958 0.318 8.875 2.688 C11.722 5.827 12.215 7.517 12.688 11.688 C12.19 16.578 10.742 17.946 7.312 21.375 C4.668 22.697 2.635 22.472 -0.312 22.438 C-1.315 22.428 -2.318 22.419 -3.352 22.41 C-4.122 22.399 -4.893 22.387 -5.688 22.375 C-6.017 21.715 -6.347 21.055 -6.688 20.375 C-8.338 20.705 -9.987 21.035 -11.688 21.375 C-12.017 20.385 -12.347 19.395 -12.688 18.375 C-14.998 18.375 -17.308 18.375 -19.688 18.375 C-20.017 19.365 -20.347 20.355 -20.688 21.375 C-22.338 21.045 -23.987 20.715 -25.688 20.375 C-25.113 15.589 -23.705 11.837 -21.625 7.5 C-21.077 6.348 -20.529 5.195 -19.965 4.008 C-19.543 3.139 -19.122 2.27 -18.688 1.375 C-17.037 1.375 -15.388 1.375 -13.688 1.375 C-11.377 5.995 -9.067 10.615 -6.688 15.375 C-6.543 13.086 -6.399 10.796 -6.25 8.438 C-5.732 0.223 -5.732 0.223 0 0 Z " fill="#FDF4F1" transform="translate(133.6875,17.625)"/>
<path d="M0 0 C0.66 0.66 1.32 1.32 2 2 C1.34 2 0.68 2 0 2 C0 5.3 0 8.6 0 12 C0.99 12.33 1.98 12.66 3 13 C2.732 13.516 2.464 14.031 2.188 14.562 C1.796 15.367 1.404 16.171 1 17 C0.443 18.052 -0.114 19.104 -0.688 20.188 C-2.488 24.419 -2.339 28.626 -1 33 C-0.008 34.007 0.992 35.008 2 36 C2 36.99 2 37.98 2 39 C-2.316 41.162 -5.552 41.07 -10.312 40.625 C-11.567 40.514 -12.821 40.403 -14.113 40.289 C-15.066 40.194 -16.019 40.098 -17 40 C-17 38.68 -17 37.36 -17 36 C-16.01 35.34 -15.02 34.68 -14 34 C-12.752 30.255 -12.201 26.872 -13 23 C-14.431 21.02 -16.023 19.353 -17.719 17.598 C-19 16 -19 16 -19.062 13.25 C-17.259 9.431 -17.259 9.431 -15 8 C-11.625 7.5 -11.625 7.5 -8 8 C-5.062 10.5 -5.062 10.5 -3 13 C-3.66 11.68 -4.32 10.36 -5 9 C-4.34 9 -3.68 9 -3 9 C-3 6.36 -3 3.72 -3 1 C-2.01 0.67 -1.02 0.34 0 0 Z " fill="#CE605A" transform="translate(57,21)"/>
<path d="M0 0 C3.406 2.174 4.718 3.153 6 7 C6.755 13.582 6.755 13.582 5.012 16.855 C2.798 19.48 0.932 20.763 -2.414 21.613 C-6.12 21.899 -8.823 21.775 -11.977 19.699 C-14.864 16.723 -16.371 14.045 -16.625 9.875 C-15.819 4.875 -14.163 2.699 -10.25 -0.375 C-6.724 -1.355 -3.471 -0.964 0 0 Z " fill="#C4534F" transform="translate(230,44)"/>
<path d="M0 0 C3.188 1.875 3.188 1.875 5 5 C5.898 9.982 5.792 13.707 3.125 18.062 C-0.433 21.306 -3.074 21.331 -7.738 21.293 C-11.054 20.863 -12.75 19.391 -15 17 C-16.869 13.262 -16.53 9.071 -16 5 C-12.37 -1.258 -6.561 -1.18 0 0 Z " fill="#FCEEEB" transform="translate(123,44)"/>
<path d="M0 0 C1.65 0 3.3 0 5 0 C7.312 2.5 7.312 2.5 9 5 C11.271 3.982 12.808 3.226 14.438 1.312 C14.953 0.879 15.469 0.446 16 0 C18.598 0.418 18.598 0.418 21 1 C21.027 3.958 21.047 6.917 21.062 9.875 C21.071 10.717 21.079 11.559 21.088 12.426 C21.093 13.634 21.093 13.634 21.098 14.867 C21.106 15.983 21.106 15.983 21.114 17.121 C21 19 21 19 20 21 C18.02 21 16.04 21 14 21 C13.67 18.36 13.34 15.72 13 13 C12.01 13.66 11.02 14.32 10 15 C9.34 13.68 8.68 12.36 8 11 C7.34 11 6.68 11 6 11 C6 14.3 6 17.6 6 21 C4.02 21.33 2.04 21.66 0 22 C0 14.74 0 7.48 0 0 Z " fill="#F9DBD8" transform="translate(86,18)"/>
<path d="M0 0 C3.431 0.058 5.345 0.141 8.438 1.688 C10.153 5.289 9.497 7.953 8.918 11.828 C8.62 15.038 9.382 17.395 10.688 20.312 C9.688 21.312 9.688 21.312 7.312 21.625 C4.688 21.312 4.688 21.312 2.875 19.312 C2.483 18.653 2.091 17.992 1.688 17.312 C1.296 18.138 0.904 18.962 0.5 19.812 C-0.098 20.638 -0.696 21.462 -1.312 22.312 C-3.926 22.469 -3.926 22.469 -6.312 22.312 C-6.341 18.833 -6.359 15.354 -6.375 11.875 C-6.383 10.882 -6.392 9.889 -6.4 8.865 C-6.404 7.921 -6.407 6.977 -6.41 6.004 C-6.415 5.129 -6.421 4.255 -6.426 3.354 C-6.199 -0.727 -3.508 0.088 0 0 Z " fill="#F4BDB8" transform="translate(153.3125,17.6875)"/>
<path d="M0 0 C1.65 0 3.3 0 5 0 C6 1 6 1 6.062 4.562 C6.042 5.697 6.021 6.831 6 8 C7.32 8 8.64 8 10 8 C9.979 6.866 9.959 5.731 9.938 4.562 C10 1 10 1 11 0 C12.65 0 14.3 0 16 0 C16 6.6 16 13.2 16 20 C14.35 20.33 12.7 20.66 11 21 C10 20 10 20 9.938 16.438 C9.958 15.303 9.979 14.169 10 13 C8.68 13 7.36 13 6 13 C6.021 14.134 6.041 15.269 6.062 16.438 C6 20 6 20 5 21 C3.35 21 1.7 21 0 21 C0 14.07 0 7.14 0 0 Z " fill="#FCEFED" transform="translate(196,44)"/>
<path d="M0 0 C1.666 -0.043 3.334 -0.041 5 0 C6.941 1.941 6.399 5.473 6.562 8.062 C6.646 9.353 6.73 10.643 6.816 11.973 C6.877 12.972 6.938 13.971 7 15 C7.99 15.33 8.98 15.66 10 16 C10 10.72 10 5.44 10 0 C11.65 0 13.3 0 15 0 C17.119 2.119 16.323 6.465 16.375 9.375 C16.412 10.156 16.45 10.937 16.488 11.742 C16.522 13.935 16.487 15.861 16 18 C13.05 20.58 11.337 20.959 7.438 21.438 C4 21 4 21 1.801 19.52 C-0.836 15.831 -0.44 12.662 -0.25 8.25 C-0.232 7.457 -0.214 6.664 -0.195 5.848 C-0.148 3.898 -0.077 1.949 0 0 Z " fill="#FCF0EE" transform="translate(237,44)"/>
<path d="M0 0 C2.438 1.5 2.438 1.5 4 3 C3.67 4.32 3.34 5.64 3 7 C-0.3 7 -3.6 7 -7 7 C-7 9.64 -7 12.28 -7 15 C-3.7 15 -0.4 15 3 15 C3.625 17.375 3.625 17.375 4 20 C1.434 22.566 0.255 22.355 -3.312 22.438 C-7.487 22.372 -8.663 22.25 -12.125 19.688 C-15.092 15.434 -15.441 12.117 -15 7 C-11.097 0.727 -7.265 -0.649 0 0 Z " fill="#F7D3CF" transform="translate(101,43)"/>
<path d="M0 0 C2.297 0.145 2.297 0.145 5 1 C6.766 3.512 6.766 3.512 8.25 6.688 C8.75 7.723 9.25 8.758 9.766 9.824 C10.968 12.917 11.587 15.717 12 19 C10.35 19.33 8.7 19.66 7 20 C6.67 19.01 6.34 18.02 6 17 C3.69 17 1.38 17 -1 17 C-1.33 17.99 -1.66 18.98 -2 20 C-3.65 19.67 -5.3 19.34 -7 19 C-6.674 11.833 -3.346 6.231 0 0 Z " fill="#FBEBE9" transform="translate(172,19)"/>
<path d="M0 0 C4.29 0 8.58 0 13 0 C12.67 1.65 12.34 3.3 12 5 C10.35 5 8.7 5 7 5 C7 5.99 7 6.98 7 8 C8.98 8 10.96 8 13 8 C12.67 9.65 12.34 11.3 12 13 C10.35 13 8.7 13 7 13 C7 13.99 7 14.98 7 16 C8.98 16 10.96 16 13 16 C12.67 17.65 12.34 19.3 12 21 C8.04 21 4.08 21 0 21 C0 14.07 0 7.14 0 0 Z " fill="#FAE3E0" transform="translate(174,44)"/>
<path d="M0 0 C0.66 0.33 1.32 0.66 2 1 C1.67 2.32 1.34 3.64 1 5 C-1.31 5 -3.62 5 -6 5 C-5.153 7.256 -5.153 7.256 -2.562 7.938 C0 9 0 9 2 12 C1.812 15.562 1.812 15.562 1 19 C-1.997 20.998 -2.633 21.276 -6 21.25 C-7.021 21.258 -7.021 21.258 -8.062 21.266 C-10 21 -10 21 -13 19 C-13.188 16.375 -13.188 16.375 -13 14 C-10.03 14.33 -7.06 14.66 -4 15 C-4 14.34 -4 13.68 -4 13 C-4.763 12.876 -5.526 12.752 -6.312 12.625 C-9 12 -9 12 -12 10 C-12.501 6.135 -12.525 3.875 -10.5 0.5 C-6.695 -1.783 -4.296 -0.901 0 0 Z " fill="#FAE4E1" transform="translate(268,44)"/>
<path d="M0 0 C0.99 0.66 1.98 1.32 3 2 C2.67 3.32 2.34 4.64 2 6 C-0.31 5.67 -2.62 5.34 -5 5 C-3.165 7.028 -1.834 8.077 0.688 9.25 C3 11 3 11 3.5 14.5 C3 18 3 18 1.785 19.703 C-0.601 21.437 -2.141 21.336 -5.062 21.25 C-5.94 21.235 -6.818 21.219 -7.723 21.203 C-10 21 -10 21 -12 20 C-12 18.02 -12 16.04 -12 14 C-7.05 14.99 -7.05 14.99 -2 16 C-2 15.34 -2 14.68 -2 14 C-3.114 13.711 -4.227 13.422 -5.375 13.125 C-9 12 -9 12 -11 10 C-11.464 6.444 -11.428 4.65 -9.438 1.625 C-6.12 -0.586 -3.911 -0.427 0 0 Z " fill="#FCEAE7" transform="translate(197,18)"/>
<path d="M0 0 C2.051 0.033 4.102 0.065 6.152 0.098 C6.083 1.076 6.083 1.076 6.012 2.074 C5.762 8.122 6.3 11.195 10.152 16.098 C10.902 18.473 10.902 18.473 11.152 20.098 C6.836 22.26 3.6 22.168 -1.16 21.723 C-2.414 21.612 -3.669 21.501 -4.961 21.387 C-5.914 21.291 -6.866 21.196 -7.848 21.098 C-7.848 19.778 -7.848 18.458 -7.848 17.098 C-6.858 16.438 -5.868 15.778 -4.848 15.098 C-4.154 12.772 -3.486 10.439 -2.848 8.098 C-2.188 7.768 -1.528 7.438 -0.848 7.098 C-1.508 5.118 -2.168 3.138 -2.848 1.098 C-1.848 0.098 -1.848 0.098 0 0 Z M0.152 10.098 C0.497 12.57 0.497 12.57 1.152 15.098 C1.812 15.428 2.472 15.758 3.152 16.098 C2.492 14.118 1.832 12.138 1.152 10.098 C0.822 10.098 0.492 10.098 0.152 10.098 Z " fill="#C13C40" transform="translate(47.84765625,39.90234375)"/>
<path d="M0 0 C4.29 0 8.58 0 13 0 C12.67 1.65 12.34 3.3 12 5 C10.02 5 8.04 5 6 5 C6 5.99 6 6.98 6 8 C7.98 8 9.96 8 12 8 C11.67 9.65 11.34 11.3 11 13 C9.35 13 7.7 13 6 13 C6 13.99 6 14.98 6 16 C8.31 16 10.62 16 13 16 C12.67 17.65 12.34 19.3 12 21 C8.04 21 4.08 21 0 21 C0 14.07 0 7.14 0 0 Z " fill="#FDF7F5" transform="translate(272,44)"/>
<path d="M0 0 C10.002 -0.705 17.239 0.103 25.031 6.727 C30.436 12.292 33.795 19.09 34.121 26.902 C33.761 32.488 32.541 37.029 30 42 C29.375 40.25 29.375 40.25 29 38 C29.313 37.421 29.626 36.842 29.949 36.246 C32.428 30.948 31.924 23.866 30.16 18.395 C26.436 11.11 19.777 4.692 12 2 C8.006 1.481 4.022 1.189 0 1 C0 0.67 0 0.34 0 0 Z M-3 1 C0 2 0 2 0 2 Z M-6 2 C-5.01 2.33 -4.02 2.66 -3 3 C-4.32 3.33 -5.64 3.66 -7 4 C-6.67 3.34 -6.34 2.68 -6 2 Z M-9 4 C-7 5 -7 5 -7 5 Z M-12 6 C-11.34 6.33 -10.68 6.66 -10 7 C-12.97 9.475 -12.97 9.475 -16 12 C-14.848 9.532 -13.952 7.952 -12 6 Z M-17 12 C-16.67 12.66 -16.34 13.32 -16 14 C-16.741 15.854 -17.484 17.707 -18.23 19.559 C-19.607 23.927 -19.757 28.448 -20 33 C-20.33 33 -20.66 33 -21 33 C-22.587 26.507 -21.252 21.23 -19 15 C-18.34 14.01 -17.68 13.02 -17 12 Z M-20 34 C-16.4 39.4 -16.4 39.4 -15 42 C-15.33 42.66 -15.66 43.32 -16 44 C-20 38.5 -20 38.5 -20 34 Z M28 42 C28 45 28 45 25.5 47.688 C24.675 48.451 23.85 49.214 23 50 C22.34 49.67 21.68 49.34 21 49 C23.31 46.69 25.62 44.38 28 42 Z M-15 44 C-13.02 45.65 -11.04 47.3 -9 49 C-12 49 -12 49 -13.688 47.625 C-15 46 -15 46 -15 44 Z M19 50 C19.66 50.33 20.32 50.66 21 51 C20.01 51 19.02 51 18 51 C18.33 50.67 18.66 50.34 19 50 Z M-8 51 C-4.877 51.486 -2.004 51.999 1 53 C3.059 53.223 5.122 53.407 7.188 53.562 C8.274 53.646 9.361 53.73 10.48 53.816 C11.728 53.907 11.728 53.907 13 54 C13 54.33 13 54.66 13 55 C5.272 55.318 -0.939 55.323 -8 52 C-8 51.67 -8 51.34 -8 51 Z M14 52 C15.98 52.495 15.98 52.495 18 53 C16.35 53.33 14.7 53.66 13 54 C13.33 53.34 13.66 52.68 14 52 Z " fill="#EE8E66" transform="translate(43,14)"/>
<path d="M0 0 C4.29 0 8.58 0 13 0 C12.67 1.65 12.34 3.3 12 5 C10.02 5 8.04 5 6 5 C6 5.99 6 6.98 6 8 C7.98 8 9.96 8 12 8 C11.67 9.65 11.34 11.3 11 13 C9.35 13 7.7 13 6 13 C6 13.99 6 14.98 6 16 C7.65 16 9.3 16 11 16 C11.562 17.938 11.562 17.938 12 20 C11 21 11 21 8.496 21.098 C5.664 21.065 2.832 21.033 0 21 C0 14.07 0 7.14 0 0 Z " fill="#FDF7F5" transform="translate(160,44)"/>
<path d="M0 0 C5.28 0 10.56 0 16 0 C17 3 17 3 15.562 6.188 C14.789 7.58 14.789 7.58 14 9 C12.02 9 10.04 9 8 9 C8 8.01 8 7.02 8 6 C9.65 5.67 11.3 5.34 13 5 C13.33 3.68 13.66 2.36 14 1 C9.71 1 5.42 1 1 1 C1 7.93 1 14.86 1 22 C2.939 21.918 4.877 21.835 6.875 21.75 C7.966 21.704 9.056 21.657 10.18 21.609 C13.133 21.312 13.133 21.312 14.383 18.953 C14.586 18.309 14.79 17.664 15 17 C15.33 18.65 15.66 20.3 16 22 C12.507 24.329 11.14 24.236 7.02 24.195 C5.274 24.186 5.274 24.186 3.494 24.176 C2.279 24.159 1.064 24.142 -0.188 24.125 C-1.414 24.116 -2.641 24.107 -3.904 24.098 C-6.936 24.074 -9.968 24.041 -13 24 C-13 23.34 -13 22.68 -13 22 C-9.37 21.67 -5.74 21.34 -2 21 C-2 20.01 -2 19.02 -2 18 C-3.65 17.67 -5.3 17.34 -7 17 C-7 16.01 -7 15.02 -7 14 C-5.35 13.67 -3.7 13.34 -2 13 C-1.67 11.68 -1.34 10.36 -1 9 C-2.98 9 -4.96 9 -7 9 C-7 8.01 -7 7.02 -7 6 C-5.02 5.67 -3.04 5.34 -1 5 C-0.67 3.35 -0.34 1.7 0 0 Z M14 9 C14.33 9 14.66 9 15 9 C15.125 14.75 15.125 14.75 14 17 C12.02 17 10.04 17 8 17 C8 16.01 8 15.02 8 14 C9.65 13.67 11.3 13.34 13 13 C13.33 11.68 13.66 10.36 14 9 Z " fill="#B43C41" transform="translate(173,43)"/>
<path d="M0 0 C4.299 2.73 7.8 6.158 11.188 9.938 C10.858 10.598 10.528 11.258 10.188 11.938 C9.074 11.009 9.074 11.009 7.938 10.062 C5.699 8.333 3.75 7.076 1.188 5.938 C1.208 7.196 1.229 8.454 1.25 9.75 C1.296 12.578 1.104 14.187 0.188 16.938 C-1.133 16.608 -2.453 16.278 -3.812 15.938 C-3.938 8.313 -3.938 8.313 -2.812 4.938 C-3.802 4.938 -4.793 4.938 -5.812 4.938 C-5.687 5.895 -5.687 5.895 -5.559 6.871 C-5.457 7.697 -5.355 8.524 -5.25 9.375 C-5.146 10.199 -5.041 11.022 -4.934 11.871 C-4.894 12.553 -4.854 13.235 -4.812 13.938 C-5.142 14.267 -5.472 14.598 -5.812 14.938 C-5.153 15.927 -4.492 16.918 -3.812 17.938 C-7.216 16.926 -8.57 16.289 -10.625 13.312 C-11.017 12.529 -11.409 11.745 -11.812 10.938 C-10.822 10.938 -9.832 10.938 -8.812 10.938 C-9.142 9.947 -9.472 8.957 -9.812 7.938 C-9.483 7.277 -9.153 6.617 -8.812 5.938 C-8.153 5.938 -7.492 5.938 -6.812 5.938 C-6.153 3.957 -5.492 1.977 -4.812 -0.062 C-6.462 -0.062 -8.112 -0.062 -9.812 -0.062 C-10.142 1.258 -10.472 2.578 -10.812 3.938 C-11.142 3.277 -11.472 2.617 -11.812 1.938 C-12.472 1.938 -13.133 1.938 -13.812 1.938 C-13.812 1.277 -13.812 0.617 -13.812 -0.062 C-14.72 0.288 -15.627 0.639 -16.562 1 C-19.69 1.902 -20.865 2.071 -23.812 0.938 C-16.329 -3.145 -7.741 -4.01 0 0 Z M-2.812 7.938 C-1.812 9.938 -1.812 9.938 -1.812 9.938 Z M-0.812 18.938 C-0.483 19.597 -0.153 20.258 0.188 20.938 C-0.472 20.608 -1.133 20.278 -1.812 19.938 C-1.483 19.608 -1.153 19.278 -0.812 18.938 Z " fill="#FEEFE9" transform="translate(59.8125,17.0625)"/>
<path d="M0 0 C4.29 0 8.58 0 13 0 C13 1.65 13 3.3 13 5 C10.69 5 8.38 5 6 5 C6 5.99 6 6.98 6 8 C7.98 8 9.96 8 12 8 C11.67 9.65 11.34 11.3 11 13 C9.35 13 7.7 13 6 13 C6 15.64 6 18.28 6 21 C4.334 21.043 2.666 21.041 1 21 C0 20 0 20 -0.114 18.051 C-0.106 16.802 -0.106 16.802 -0.098 15.527 C-0.094 14.628 -0.091 13.729 -0.088 12.803 C-0.08 11.857 -0.071 10.912 -0.062 9.938 C-0.058 8.988 -0.053 8.039 -0.049 7.061 C-0.037 4.707 -0.019 2.353 0 0 Z " fill="#FCEBE8" transform="translate(130,44)"/>
<path d="M0 0 C4.29 0 8.58 0 13 0 C12.67 1.65 12.34 3.3 12 5 C10.02 5 8.04 5 6 5 C6 5.99 6 6.98 6 8 C7.98 8 9.96 8 12 8 C11.67 9.65 11.34 11.3 11 13 C9.35 13 7.7 13 6 13 C6 15.31 6 17.62 6 20 C4.344 20.382 2.675 20.714 1 21 C0 20 0 20 -0.114 18.051 C-0.106 16.802 -0.106 16.802 -0.098 15.527 C-0.094 14.628 -0.091 13.729 -0.088 12.803 C-0.08 11.857 -0.071 10.912 -0.062 9.938 C-0.058 8.988 -0.053 8.039 -0.049 7.061 C-0.037 4.707 -0.019 2.353 0 0 Z " fill="#FEE4DE" transform="translate(145,44)"/>
<path d="M0 0 C2.312 -0.312 2.312 -0.312 5 0 C9.11 4.257 8.716 10.404 9 16 C6.183 17.409 4.052 16.562 1.07 15.961 C-1.735 16.014 -2.933 17.193 -5 19 C-4.702 11.874 -3.289 6.333 0 0 Z M9 16 C9.66 16.33 10.32 16.66 11 17 C10.01 17 9.02 17 8 17 C8.33 16.67 8.66 16.34 9 16 Z " fill="#FDF8F7" transform="translate(115,19)"/>
<path d="M0 0 C3.406 2.174 4.718 3.153 6 7 C6.755 13.582 6.755 13.582 5.012 16.855 C2.798 19.48 0.932 20.763 -2.414 21.613 C-6.12 21.899 -8.823 21.775 -11.977 19.699 C-14.864 16.723 -16.371 14.045 -16.625 9.875 C-15.819 4.875 -14.163 2.699 -10.25 -0.375 C-6.724 -1.355 -3.471 -0.964 0 0 Z M-13 6 C-14.237 9.633 -14.345 11.242 -12.75 14.75 C-10.472 17.679 -8.815 18.876 -5.125 19.438 C-1.854 19.219 -1.854 19.219 0.875 17 C3.824 12.837 3.798 11.025 3 6 C0.45 3 -1.129 2.145 -5 1.5 C-8.8 2.133 -10.395 3.172 -13 6 Z " fill="#FEE0DA" transform="translate(230,44)"/>
<path d="M0 0 C0 3.3 0 6.6 0 10 C3.465 11.485 3.465 11.485 7 13 C7 13.66 7 14.32 7 15 C4.03 14.67 1.06 14.34 -2 14 C-1.656 16.473 -1.656 16.473 -1 19 C2.175 20.587 5.542 20.412 9 20 C10.92 18.749 10.92 18.749 12 17 C12.66 16.34 13.32 15.68 14 15 C13.75 17.875 13.75 17.875 13 21 C9.908 23.171 7.608 23.147 3.938 22.688 C3.08 22.588 2.223 22.489 1.34 22.387 C-1 22 -1 22 -4 21 C-4.577 21.309 -5.155 21.619 -5.75 21.938 C-8.939 23.444 -11.515 23.249 -15 23 C-17.438 22 -17.438 22 -19 21 C-18.67 20.34 -18.34 19.68 -18 19 C-17.34 19.33 -16.68 19.66 -16 20 C-11.362 20.258 -9.242 20.121 -5 18 C-5 12.39 -5 6.78 -5 1 C-6.32 0.34 -7.64 -0.32 -9 -1 C-5.799 -2.6 -3.277 -1.032 0 0 Z " fill="#C95A5E" transform="translate(257,44)"/>
<path d="M0 0 C0.773 -0.014 1.547 -0.028 2.344 -0.043 C4.5 0.188 4.5 0.188 7.5 2.188 C8.82 2.188 10.14 2.188 11.5 2.188 C11.83 8.457 12.16 14.727 12.5 21.188 C11.18 21.517 9.86 21.847 8.5 22.188 C7.386 22.889 6.273 23.59 5.125 24.312 C2.45 25.885 1.613 26.19 -1.625 26.125 C-4.619 25.149 -6.962 24.053 -9.5 22.188 C-9.5 21.528 -9.5 20.867 -9.5 20.188 C-10.49 20.188 -11.48 20.188 -12.5 20.188 C-12.5 14.578 -12.5 8.968 -12.5 3.188 C-4.628 0.039 -4.628 0.039 0 0 Z M-9.5 5.188 C-11.6 8.338 -12.055 10.284 -11.93 14.047 C-11.26 17.385 -9.828 19.463 -7.477 21.887 C-4.323 23.962 -1.62 24.086 2.086 23.801 C5.433 22.951 7.302 21.673 9.504 19.035 C11.385 15.546 11.06 13.105 10.5 9.188 C9.068 5.607 7.897 4.438 4.625 2.375 C-1.555 0.026 -4.299 1.142 -9.5 5.188 Z " fill="#B74045" transform="translate(225.5,41.8125)"/>
<path d="M0 0 C0.887 -0.014 1.774 -0.028 2.688 -0.043 C5 0.188 5 0.188 7 2.188 C6.618 7.062 5.423 11.538 4 16.188 C2.824 15.197 2.824 15.197 1.625 14.188 C-0.715 11.985 -0.715 11.985 -3 12.188 C-3.33 14.168 -3.66 16.148 -4 18.188 C-4.99 18.188 -5.98 18.188 -7 18.188 C-7 14.227 -7 10.267 -7 6.188 C-5.68 6.517 -4.36 6.848 -3 7.188 C-3 7.848 -3 8.508 -3 9.188 C-1.05 8.993 -1.05 8.993 1 8.188 C2.284 6.204 2.284 6.204 3 4.188 C1.948 2.912 1.948 2.912 -0.438 3.062 C-2.99 3.014 -2.99 3.014 -5 4.188 C-5.66 3.858 -6.32 3.527 -7 3.188 C-7 2.527 -7 1.867 -7 1.188 C-4.522 -0.051 -2.763 0.02 0 0 Z " fill="#FCF4F3" transform="translate(156,19.8125)"/>
<path d="M0 0 C3.96 0 7.92 0 12 0 C12 0.33 12 0.66 12 1 C8.04 1 4.08 1 0 1 C0 0.67 0 0.34 0 0 Z M-2 1 C-1.34 1 -0.68 1 0 1 C0.33 7.6 0.66 14.2 1 21 C2.65 21 4.3 21 6 21 C6 18.69 6 16.38 6 14 C7.65 14 9.3 14 11 14 C10.67 14.66 10.34 15.32 10 16 C9.34 16 8.68 16 8 16 C7.783 17.702 7.783 17.702 7.562 19.438 C7 23 7 23 6 24 C3.661 23.713 1.326 23.381 -1 23 C-2.125 17.25 -2.125 17.25 -1 15 C-3.31 15 -5.62 15 -8 15 C-8.33 16.32 -8.66 17.64 -9 19 C-9 17.35 -9 15.7 -9 14 C-7.35 13.67 -5.7 13.34 -4 13 C-3.67 11.68 -3.34 10.36 -3 9 C-4.98 9 -6.96 9 -9 9 C-9 8.01 -9 7.02 -9 6 C-6.69 6 -4.38 6 -2 6 C-2 4.35 -2 2.7 -2 1 Z " fill="#BD5457" transform="translate(145,43)"/>
<path d="M0 0 C3.3 0 6.6 0 10 0 C10 0.33 10 0.66 10 1 C6.7 1 3.4 1 0 1 C0 0.67 0 0.34 0 0 Z M-1 1 C-0.67 1 -0.34 1 0 1 C0 7.6 0 14.2 0 21 C3.3 21 6.6 21 10 21 C10 21.33 10 21.66 10 22 C6.37 22 2.74 22 -1 22 C-1.33 21.34 -1.66 20.68 -2 20 C-3.65 20.33 -5.3 20.66 -7 21 C-7.33 20.01 -7.66 19.02 -8 18 C-10.31 18 -12.62 18 -15 18 C-15.33 18.99 -15.66 19.98 -16 21 C-17.65 20.67 -19.3 20.34 -21 20 C-20.25 14.25 -20.25 14.25 -18 12 C-18 14.31 -18 16.62 -18 19 C-17.67 18.484 -17.34 17.969 -17 17.438 C-14.557 15.682 -13.84 15.923 -10.938 16.312 C-9.638 16.539 -8.339 16.766 -7 17 C-6.34 17 -5.68 17 -5 17 C-5.33 16.34 -5.66 15.68 -6 15 C-6.04 13 -6.043 11 -6 9 C-4 10 -4 10 -2 15 C-1.67 10.38 -1.34 5.76 -1 1 Z " fill="#F0B2AE" transform="translate(129,18)"/>
<path d="M0 0 C1.32 0 2.64 0 4 0 C6.477 10.36 6.477 10.36 5 16 C4.814 16.784 4.629 17.567 4.438 18.375 C4.293 18.911 4.149 19.448 4 20 C2.35 20 0.7 20 -1 20 C-1.029 16.854 -1.047 13.708 -1.062 10.562 C-1.071 9.665 -1.079 8.767 -1.088 7.842 C-1.091 6.988 -1.094 6.134 -1.098 5.254 C-1.106 4.068 -1.106 4.068 -1.114 2.858 C-1 1 -1 1 0 0 Z " fill="#FDF0ED" transform="translate(197,45)"/>
<path d="M0 0 C1.32 0 2.64 0 4 0 C6.25 2.5 6.25 2.5 8 5 C4.306 6.231 1.794 5.644 -2 5 C-1.125 1.125 -1.125 1.125 0 0 Z M13.094 1.918 C14.285 2.051 14.285 2.051 15.5 2.188 C16.691 2.302 16.691 2.302 17.906 2.418 C20 3 20 3 22 6 C19.36 6.33 16.72 6.66 14 7 C13.67 9.31 13.34 11.62 13 14 C11.5 12.625 11.5 12.625 10 11 C10 10.34 10 9.68 10 9 C9.01 8.67 8.02 8.34 7 8 C9.778 2.048 9.778 2.048 13.094 1.918 Z " fill="#CE3236" transform="translate(116,37)"/>
<path d="M0 0 C0.33 0 0.66 0 1 0 C1.379 3.945 1.563 6.196 -0.75 9.5 C-5.112 11.513 -8.363 10.936 -13.059 10.359 C-16.158 9.92 -16.158 9.92 -19.938 10 C-22.789 10 -25.237 9.67 -28 9 C-28.99 10.485 -28.99 10.485 -30 12 C-29.34 12.66 -28.68 13.32 -28 14 C-31.96 14 -35.92 14 -40 14 C-40 13.67 -40 13.34 -40 13 C-36.535 12.505 -36.535 12.505 -33 12 C-33.681 11.422 -34.361 10.845 -35.062 10.25 C-35.702 9.508 -36.341 8.765 -37 8 C-36.75 5.75 -36.75 5.75 -36 4 C-35.34 5.32 -34.68 6.64 -34 8 C-32.68 8 -31.36 8 -30 8 C-29.67 7.34 -29.34 6.68 -29 6 C-26.69 6 -24.38 6 -22 6 C-21.67 6.66 -21.34 7.32 -21 8 C-19.68 8 -18.36 8 -17 8 C-17 6.35 -17 4.7 -17 3 C-16.34 3 -15.68 3 -15 3 C-15 4.65 -15 6.3 -15 8 C-13.042 8.054 -11.084 8.093 -9.125 8.125 C-8.034 8.148 -6.944 8.171 -5.82 8.195 C-2.863 8.301 -2.863 8.301 -1 6 C-0.602 4.012 -0.262 2.011 0 0 Z M-41 9 C-37 10 -37 10 -37 10 Z " fill="#C45054" transform="translate(200,30)"/>
<path d="M0 0 C0.562 1.937 0.562 1.937 1 4 C0 5 0 5 -2.285 5.098 C-3.66 5.08 -3.66 5.08 -5.062 5.062 C-5.982 5.053 -6.901 5.044 -7.848 5.035 C-8.558 5.024 -9.268 5.012 -10 5 C-10.164 5.849 -10.164 5.849 -10.332 6.715 C-10.491 7.448 -10.649 8.182 -10.812 8.938 C-10.963 9.668 -11.114 10.399 -11.27 11.152 C-11.511 11.762 -11.752 12.372 -12 13 C-12.99 13.33 -13.98 13.66 -15 14 C-17 11 -17 11 -17 8.125 C-15.946 4.832 -14.725 3.015 -11.965 0.902 C-8.158 -0.846 -4.087 -0.363 0 0 Z M-12 13 C-12 13.99 -12 14.98 -12 16 C-12.66 15.34 -13.32 14.68 -14 14 C-13.34 13.67 -12.68 13.34 -12 13 Z " fill="#FDFBFB" transform="translate(104,45)"/>
<path d="M0 0 C2.31 0 4.62 0 7 0 C8.125 6.75 8.125 6.75 7 9 C3.248 10.93 0.188 11.279 -4 11 C-4.66 10.67 -5.32 10.34 -6 10 C-6 8.02 -6 6.04 -6 4 C-1.05 4.99 -1.05 4.99 4 6 C4 5.34 4 4.68 4 4 C2.35 3.67 0.7 3.34 -1 3 C-0.67 2.01 -0.34 1.02 0 0 Z " fill="#FDF2EF" transform="translate(191,28)"/>
<path d="M0 0 C1.65 0 3.3 0 5 0 C7.385 2.385 6.399 8.546 6.523 11.777 C6.681 12.841 6.838 13.904 7 15 C7.99 15.66 8.98 16.32 10 17 C8.02 17 6.04 17 4 17 C3.67 16.01 3.34 15.02 3 14 C2.01 14.99 1.02 15.98 0 17 C0 11.39 0 5.78 0 0 Z " fill="#FDE2DC" transform="translate(237,44)"/>
<path d="M0 0 C0.33 0 0.66 0 1 0 C1.125 5.75 1.125 5.75 0 8 C-1.98 8 -3.96 8 -6 8 C-6 7.01 -6 6.02 -6 5 C-4.35 4.67 -2.7 4.34 -1 4 C-0.67 2.68 -0.34 1.36 0 0 Z M-21 7 C-18.69 7 -16.38 7 -14 7 C-14 8.65 -14 10.3 -14 12 C-14.66 11.01 -15.32 10.02 -16 9 C-18.563 8.27 -18.563 8.27 -21 8 C-21 7.67 -21 7.34 -21 7 Z M0 8 C0.66 8.33 1.32 8.66 2 9 C1.625 11.438 1.625 11.438 1 14 C-1.714 15.357 -3.848 15.112 -6.883 15.098 C-8.049 15.094 -9.216 15.091 -10.418 15.088 C-11.641 15.08 -12.865 15.071 -14.125 15.062 C-15.356 15.058 -16.587 15.053 -17.855 15.049 C-20.904 15.037 -23.952 15.021 -27 15 C-27 14.34 -27 13.68 -27 13 C-18.311 12.109 -9.731 11.884 -1 12 C-0.67 10.68 -0.34 9.36 0 8 Z " fill="#C2474B" transform="translate(187,52)"/>
<path d="M0 0 C0 0.66 0 1.32 0 2 C-0.949 1.959 -1.898 1.917 -2.875 1.875 C-6.102 1.65 -6.102 1.65 -8 4 C-8.66 3.67 -9.32 3.34 -10 3 C-10 1.68 -10 0.36 -10 -1 C-5.922 -1.927 -3.578 -2.34 0 0 Z M-9 4 C-8.01 4 -7.02 4 -6 4 C-6 4.99 -6 5.98 -6 7 C-4.02 7 -2.04 7 0 7 C-0.33 7.99 -0.66 8.98 -1 10 C-1.784 10.062 -2.567 10.124 -3.375 10.188 C-4.241 10.456 -5.107 10.724 -6 11 C-7.375 13.476 -7.375 13.476 -8 16 C-8.66 16 -9.32 16 -10 16 C-10.027 14.375 -10.046 12.75 -10.062 11.125 C-10.074 10.22 -10.086 9.315 -10.098 8.383 C-10 6 -10 6 -9 4 Z " fill="#FDF8F7" transform="translate(156,46)"/>
<path d="M0 0 C3.062 0.188 3.062 0.188 5.062 2.188 C5.482 5.379 5.332 6.772 3.562 9.5 C3.067 10.057 2.572 10.614 2.062 11.188 C-2.688 10.438 -2.688 10.438 -4.938 8.188 C-4.243 0.271 -4.243 0.271 0 0 Z " fill="#DC302F" transform="translate(224.9375,48.8125)"/>
<path d="M0 0 C2.31 0 4.62 0 7 0 C7.66 0.66 8.32 1.32 9 2 C7.02 2.99 7.02 2.99 5 4 C5 4.99 5 5.98 5 7 C6.65 7.33 8.3 7.66 10 8 C10 8.66 10 9.32 10 10 C9.196 10.289 8.391 10.578 7.562 10.875 C4.867 11.733 4.867 11.733 4 14 C2.68 14 1.36 14 0 14 C0 9.38 0 4.76 0 0 Z " fill="#FDFAFA" transform="translate(273,45)"/>
<path d="M0 0 C3.96 0 7.92 0 12 0 C7.784 2.108 5.602 2.177 1 2 C1 2.66 1 3.32 1 4 C5.455 3.505 5.455 3.505 10 3 C10.66 4.32 11.32 5.64 12 7 C10.68 8.32 9.36 9.64 8 11 C7.01 10.67 6.02 10.34 5 10 C4.67 9.34 4.34 8.68 4 8 C3.01 7.67 2.02 7.34 1 7 C1 10.3 1 13.6 1 17 C0.67 17 0.34 17 0 17 C0 11.39 0 5.78 0 0 Z " fill="#FEEDE8" transform="translate(148,19)"/>
<path d="M0 0 C1.486 2.972 1.132 5.696 1.125 9 C1.128 10.258 1.13 11.516 1.133 12.812 C1 16 1 16 0 18 C-0.99 18 -1.98 18 -3 18 C-4.472 15.056 -4 12.266 -4 9 C-4.278 7.639 -4.278 7.639 -4.562 6.25 C-5 4 -5 4 -4 1 C-2 0 -2 0 0 0 Z " fill="#FDF8F7" transform="translate(105,20)"/>
<path d="M0 0 C1.301 1.707 1.301 1.707 2.312 3.812 C2.659 4.5 3.006 5.187 3.363 5.895 C4.103 8.341 3.83 9.618 3 12 C2.685 11.29 2.371 10.579 2.047 9.848 C1.619 8.929 1.191 8.009 0.75 7.062 C0.332 6.146 -0.085 5.229 -0.516 4.285 C-1.786 1.836 -1.786 1.836 -4.172 1.184 C-4.775 1.123 -5.378 1.062 -6 1 C-6.227 1.784 -6.454 2.567 -6.688 3.375 C-8.407 8.123 -10.681 12.521 -13 17 C-15.027 15.809 -15.027 15.809 -17 14 C-17.066 11.66 -17.066 11.66 -16.562 9.062 C-15.778 5.168 -15.778 5.168 -17.465 1.684 C-17.971 1.128 -18.478 0.572 -19 0 C-15.125 0.875 -15.125 0.875 -14 2 C-13.901 3.456 -13.87 4.916 -13.875 6.375 C-13.872 7.166 -13.87 7.958 -13.867 8.773 C-14 11 -14 11 -15 14 C-14.34 14 -13.68 14 -13 14 C-12.727 13.112 -12.727 13.112 -12.449 12.207 C-9.72 3.626 -9.72 3.626 -7 0 C-3.862 -1.046 -2.97 -1.215 0 0 Z " fill="#BC3C42" transform="translate(178,18)"/>
<path d="M0 0 C2.5 0.25 2.5 0.25 4.5 2.25 C4.75 5.25 4.75 5.25 4.5 8.25 C2.5 10.25 2.5 10.25 -0.562 10.438 C-3.5 10.25 -3.5 10.25 -4.5 9.25 C-4.688 5.812 -4.688 5.812 -4.5 2.25 C-2.5 0.25 -2.5 0.25 0 0 Z " fill="#BD4046" transform="translate(117.5,48.75)"/>
<path d="M0 0 C0.866 0.371 0.866 0.371 1.75 0.75 C0.76 1.08 -0.23 1.41 -1.25 1.75 C-1.58 2.74 -1.91 3.73 -2.25 4.75 C-2.91 4.75 -3.57 4.75 -4.25 4.75 C-4.25 6.4 -4.25 8.05 -4.25 9.75 C-3.26 10.08 -2.27 10.41 -1.25 10.75 C-1.25 11.41 -1.25 12.07 -1.25 12.75 C-3.725 11.76 -3.725 11.76 -6.25 10.75 C-6.735 4.443 -6.735 4.443 -4.5 1.25 C-2.25 -0.25 -2.25 -0.25 0 0 Z M6.75 1.75 C7.08 2.74 7.41 3.73 7.75 4.75 C6.75 5.75 6.75 5.75 3.188 5.812 C2.053 5.792 0.919 5.771 -0.25 5.75 C0.597 8.006 0.597 8.006 3.188 8.688 C5.75 9.75 5.75 9.75 7.75 12.75 C7.875 15.438 7.875 15.438 7.75 17.75 C4.75 14.125 4.75 14.125 4.75 10.75 C3.636 10.647 2.522 10.544 1.375 10.438 C-0.419 10.097 -0.419 10.097 -2.25 9.75 C-2.91 8.76 -3.57 7.77 -4.25 6.75 C-3.59 6.75 -2.93 6.75 -2.25 6.75 C-2.25 6.09 -2.25 5.43 -2.25 4.75 C0.826 4.457 0.826 4.457 3.902 4.164 C4.817 3.959 4.817 3.959 5.75 3.75 C6.08 3.09 6.41 2.43 6.75 1.75 Z " fill="#FAD8D2" transform="translate(262.25,43.25)"/>
<path d="M0 0 C0.33 0 0.66 0 1 0 C1.33 2.31 1.66 4.62 2 7 C2.99 6.67 3.98 6.34 5 6 C4.567 8.597 4.173 10.692 2.875 13 C1.694 15.699 2.126 17.232 3 20 C3.66 20.66 4.32 21.32 5 22 C3.042 22.081 1.084 22.139 -0.875 22.188 C-2.511 22.24 -2.511 22.24 -4.18 22.293 C-5.11 22.196 -6.041 22.1 -7 22 C-9 19 -9 19 -8.625 16.812 C-8.419 16.214 -8.213 15.616 -8 15 C-8.66 15 -9.32 15 -10 15 C-9.34 13.35 -8.68 11.7 -8 10 C-7.67 10 -7.34 10 -7 10 C-7 13.3 -7 16.6 -7 20 C-5.02 20 -3.04 20 -1 20 C-0.67 13.4 -0.34 6.8 0 0 Z " fill="#C5363C" transform="translate(107,19)"/>
<path d="M0 0 C2.31 0 4.62 0 7 0 C7.33 0.66 7.66 1.32 8 2 C9.98 1.67 11.96 1.34 14 1 C12.25 4.875 12.25 4.875 10 6 C8 4.625 8 4.625 6 3 C6 2.34 6 1.68 6 1 C3.504 1.781 3.504 1.781 1 3 C0.67 3.99 0.34 4.98 0 6 C1.114 5.959 2.227 5.918 3.375 5.875 C7 6 7 6 9 8 C8.241 8.061 7.481 8.121 6.699 8.184 C5.208 8.309 5.208 8.309 3.688 8.438 C2.701 8.519 1.715 8.6 0.699 8.684 C-2.094 8.918 -2.094 8.918 -5 10 C-5.33 10.99 -5.66 11.98 -6 13 C-6.99 13 -7.98 13 -9 13 C-9.66 11.35 -10.32 9.7 -11 8 C-10.237 8.206 -9.474 8.413 -8.688 8.625 C-5.781 9.334 -5.781 9.334 -3 7 C-2.67 6.01 -2.34 5.02 -2 4 C-2.66 3.67 -3.32 3.34 -4 3 C-3.01 2.67 -2.02 2.34 -1 2 C-0.67 1.34 -0.34 0.68 0 0 Z " fill="#C74B50" transform="translate(114,36)"/>
<path d="M0 0 C2.051 0.033 4.102 0.065 6.152 0.098 C6.152 4.388 6.152 8.678 6.152 13.098 C3.152 13.098 3.152 13.098 1.57 11.891 C-0.087 9.794 -0.759 7.961 -1.535 5.41 C-1.787 4.602 -2.038 3.794 -2.297 2.961 C-2.479 2.346 -2.66 1.731 -2.848 1.098 C-1.848 0.098 -1.848 0.098 0 0 Z " fill="#DD292D" transform="translate(47.84765625,39.90234375)"/>
<path d="M0 0 C1.98 0.495 1.98 0.495 4 1 C3.67 5.62 3.34 10.24 3 15 C3.66 15 4.32 15 5 15 C5 15.99 5 16.98 5 18 C0.125 17.125 0.125 17.125 -1 16 C-1.1 13.489 -1.139 11.011 -1.125 8.5 C-1.129 7.797 -1.133 7.095 -1.137 6.371 C-1.127 1.127 -1.127 1.127 0 0 Z " fill="#FDF9F8" transform="translate(130,20)"/>
<path d="M0 0 C0.625 1.812 0.625 1.812 1 4 C-1 7 -1 7 -2.918 7.582 C-8.183 8.117 -11.875 7.507 -17 6 C-19.033 6.85 -19.033 6.85 -21 8 C-25.256 8.304 -28.352 8.335 -32 6 C-31.67 5.34 -31.34 4.68 -31 4 C-30.34 4.33 -29.68 4.66 -29 5 C-23.741 5.405 -20.547 4.662 -16 2 C-15.505 2.495 -15.01 2.99 -14.5 3.5 C-10.774 5.736 -8.321 5.412 -4 5 C-1.825 3.457 -1.182 2.363 0 0 Z " fill="#BD3B40" transform="translate(270,59)"/>
<path d="M0 0 C3.3 0.33 6.6 0.66 10 1 C10 6.28 10 11.56 10 17 C8.68 16.67 7.36 16.34 6 16 C5.67 11.38 5.34 6.76 5 2 C3.35 1.67 1.7 1.34 0 1 C0 0.67 0 0.34 0 0 Z " fill="#B9383E" transform="translate(237,43)"/>
<path d="M0 0 C0.66 0 1.32 0 2 0 C3.32 2.97 4.64 5.94 6 9 C4.68 8.34 3.36 7.68 2 7 C0.892 8.883 0.892 8.883 0 11 C0.33 11.66 0.66 12.32 1 13 C-0.98 13 -2.96 13 -5 13 C-5 11.68 -5 10.36 -5 9 C-4.01 8.34 -3.02 7.68 -2 7 C-0.781 3.443 -0.781 3.443 0 0 Z M7 8 C7.66 8.66 8.32 9.32 9 10 C8.01 9.67 7.02 9.34 6 9 C6.33 8.67 6.66 8.34 7 8 Z M13 9 C13 9.99 13 10.98 13 12 C11.68 11.34 10.36 10.68 9 10 C10.32 9.67 11.64 9.34 13 9 Z " fill="#CA4B48" transform="translate(45,48)"/>
<path d="M0 0 C0.776 -0.005 1.552 -0.01 2.352 -0.016 C4.375 0.25 4.375 0.25 6.375 2.25 C5.711 2.215 5.047 2.18 4.363 2.145 C-2.64 1.881 -2.64 1.881 -8.625 5.25 C-11.584 9.688 -10.808 13.343 -10.312 18.5 C-8.179 21.978 -6.856 22.066 -3 23.125 C-1.214 23.525 0.577 23.907 2.375 24.25 C2.375 24.58 2.375 24.91 2.375 25.25 C-4.839 25.739 -4.839 25.739 -8.438 23.5 C-13.544 18.247 -13.544 18.247 -13.84 14.594 C-13.09 6.908 -13.09 6.908 -10.812 3.688 C-7.118 1.26 -4.482 -0.03 0 0 Z " fill="#C1373E" transform="translate(97.625,41.75)"/>
<path d="M0 0 C0.33 0 0.66 0 1 0 C1.061 0.675 1.121 1.351 1.184 2.047 C1.267 2.939 1.351 3.831 1.438 4.75 C1.559 6.073 1.559 6.073 1.684 7.422 C1.962 9.694 2.388 11.799 3 14 C0 12 0 12 -0.547 9.941 C-0.614 9.156 -0.681 8.371 -0.75 7.562 C-0.827 6.78 -0.905 5.998 -0.984 5.191 C-1 3 -1 3 0 0 Z M4 15 C4.66 16.32 5.32 17.64 6 19 C4.02 19.66 2.04 20.32 0 21 C-0.33 20.34 -0.66 19.68 -1 19 C0.65 18.67 2.3 18.34 4 18 C4 17.01 4 16.02 4 15 Z M4 21 C4.99 21.66 5.98 22.32 7 23 C1.275 26.816 -4.297 26.293 -11 26 C-11 25.67 -11 25.34 -11 25 C-10.336 24.963 -9.672 24.925 -8.988 24.887 C-3.93 24.51 -0.158 24.188 4 21 Z " fill="#FACFC8" transform="translate(55,42)"/>
<path d="M0 0 C0.33 0 0.66 0 1 0 C1.058 3.458 1.094 6.916 1.125 10.375 C1.142 11.36 1.159 12.345 1.176 13.359 C1.182 14.3 1.189 15.241 1.195 16.211 C1.206 17.08 1.216 17.95 1.227 18.845 C1 21 1 21 -1 23 C-4.297 22.67 -5.623 22.377 -8 20 C-8.454 20.495 -8.907 20.99 -9.375 21.5 C-11 23 -11 23 -13 23 C-13 22.34 -13 21.68 -13 21 C-12.34 20.67 -11.68 20.34 -11 20 C-10.593 17.678 -10.256 15.343 -10 13 C-8.68 13 -7.36 13 -6 13 C-5.67 15.31 -5.34 17.62 -5 20 C-3.68 20 -2.36 20 -1 20 C-0.67 13.4 -0.34 6.8 0 0 Z " fill="#CA5355" transform="translate(212,44)"/>
<path d="M0 0 C2.31 0 4.62 0 7 0 C6.67 0.66 6.34 1.32 6 2 C4.35 1.67 2.7 1.34 1 1 C1 8.26 1 15.52 1 23 C0.67 23 0.34 23 0 23 C0 15.41 0 7.82 0 0 Z M22 0 C21.67 0.66 21.34 1.32 21 2 C19.855 2.186 19.855 2.186 18.688 2.375 C15.405 3.138 14.179 4.499 12 7 C9 6 9 6 7.812 3.938 C7.544 3.298 7.276 2.659 7 2 C8.98 2.66 10.96 3.32 13 4 C13 3.34 13 2.68 13 2 C18.625 -1.125 18.625 -1.125 22 0 Z M1 23 C5 24 5 24 5 24 Z " fill="#C13239" transform="translate(85,17)"/>
<path d="M0 0 C5 1 5 1 6 2 C6.467 8.31 6.467 8.31 4.688 10.938 C3 12 3 12 0 12 C0 8.04 0 4.08 0 0 Z " fill="#C63438" transform="translate(134,23)"/>
<path d="M0 0 C5.427 2.412 6.696 5.794 9 11 C9.33 8.03 9.66 5.06 10 2 C10.66 2.33 11.32 2.66 12 3 C11.67 8.28 11.34 13.56 11 19 C7.911 14.881 6.326 11.113 4.477 6.363 C3.197 3.744 3.197 3.744 0.336 3.168 C-0.82 3.085 -0.82 3.085 -2 3 C-2.66 4.98 -3.32 6.96 -4 9 C-4.812 7.312 -4.812 7.312 -5 5 C-2.562 2.25 -2.562 2.25 0 0 Z " fill="#BD3F44" transform="translate(117,16)"/>
<path d="M0 0 C2.64 0 5.28 0 8 0 C8 0.33 8 0.66 8 1 C5.36 1 2.72 1 0 1 C0 0.67 0 0.34 0 0 Z M8 1 C10.31 1.33 12.62 1.66 15 2 C15.33 3.32 15.66 4.64 16 6 C14.866 6.289 13.731 6.578 12.562 6.875 C11.387 7.246 10.211 7.617 9 8 C8.67 8.66 8.34 9.32 8 10 C6.02 10 4.04 10 2 10 C2 9.01 2 8.02 2 7 C3.98 6.67 5.96 6.34 8 6 C8 4.35 8 2.7 8 1 Z " fill="#BF373B" transform="translate(276,42)"/>
<path d="M0 0 C1.98 0.99 3.96 1.98 6 3 C6.66 2.34 7.32 1.68 8 1 C8.99 1 9.98 1 11 1 C11.33 2.65 11.66 4.3 12 6 C10 7 10 7 6.125 6.375 C3.027 5.919 2.32 5.816 -0.5 7.438 C-0.995 7.953 -1.49 8.469 -2 9 C-1.514 5.877 -1.001 3.004 0 0 Z M12 6 C12.66 6.33 13.32 6.66 14 7 C13.01 7 12.02 7 11 7 C11.33 6.67 11.66 6.34 12 6 Z " fill="#FDFBFA" transform="translate(112,29)"/>
<path d="M0 0 C0.33 0 0.66 0 1 0 C1 6.6 1 13.2 1 20 C0.34 19.67 -0.32 19.34 -1 19 C-1 17.02 -1 15.04 -1 13 C-1.66 12.67 -2.32 12.34 -3 12 C-2.67 10.68 -2.34 9.36 -2 8 C-3.98 8 -5.96 8 -8 8 C-8 7.01 -8 6.02 -8 5 C-4.535 4.505 -4.535 4.505 -1 4 C-0.67 2.68 -0.34 1.36 0 0 Z " fill="#C6595F" transform="translate(159,44)"/>
<path d="M0 0 C2.875 1 2.875 1 4.812 2.688 C6.276 5.873 5.864 7.679 4.875 11 C3.688 12.875 3.688 12.875 1.875 14 C-1.755 14.541 -3.447 14.464 -6.5 12.375 C-8.125 10 -8.125 10 -8.688 7 C-8.125 4 -8.125 4 -6 1.562 C-3.125 0 -3.125 0 0 0 Z M-4.125 2 C-6.28 5.233 -6.594 6.252 -6.125 10 C-5.125 12 -5.125 12 -3.125 13 C-0.005 12.925 -0.005 12.925 2.875 12 C4.256 9.237 4.066 7.053 3.875 4 C1.988 1.693 1.988 1.693 -1.125 1.688 C-2.115 1.791 -3.105 1.894 -4.125 2 Z " fill="#EE8959" transform="translate(226.125,47)"/>
<path d="M0 0 C-1.75 3.875 -1.75 3.875 -4 5 C-6.207 5.071 -8.417 5.084 -10.625 5.062 C-11.814 5.053 -13.002 5.044 -14.227 5.035 C-15.142 5.024 -16.057 5.012 -17 5 C-16.67 3.68 -16.34 2.36 -16 1 C-14.928 1.021 -13.855 1.041 -12.75 1.062 C-8.363 0.989 -4.411 -0.123 0 0 Z " fill="#FDF5F3" transform="translate(58,62)"/>
<path d="M0 0 C0.742 0.495 1.485 0.99 2.25 1.5 C1.59 2.16 0.93 2.82 0.25 3.5 C-0.74 3.17 -1.73 2.84 -2.75 2.5 C-2.75 1.84 -2.75 1.18 -2.75 0.5 C-4.73 0.5 -6.71 0.5 -8.75 0.5 C-9.08 1.82 -9.41 3.14 -9.75 4.5 C-10.08 3.84 -10.41 3.18 -10.75 2.5 C-11.41 2.5 -12.07 2.5 -12.75 2.5 C-12.75 1.84 -12.75 1.18 -12.75 0.5 C-13.657 0.851 -14.565 1.201 -15.5 1.562 C-18.628 2.465 -19.802 2.634 -22.75 1.5 C-15.95 -2.209 -7.19 -3.587 0 0 Z M-1.75 2.5 C-1.75 3.49 -1.75 4.48 -1.75 5.5 C-2.74 5.17 -3.73 4.84 -4.75 4.5 C-3.76 3.84 -2.77 3.18 -1.75 2.5 Z " fill="#FCD8D1" transform="translate(58.75,16.5)"/>
<path d="M0 0 C3.562 0.125 3.562 0.125 5.562 1.125 C5.562 2.445 5.562 3.765 5.562 5.125 C4.108 5.514 2.649 5.886 1.188 6.25 C0.375 6.459 -0.437 6.668 -1.273 6.883 C-1.988 6.963 -2.702 7.043 -3.438 7.125 C-4.097 6.465 -4.757 5.805 -5.438 5.125 C-4.792 0.867 -4.469 0.162 0 0 Z " fill="#E0282D" transform="translate(99.4375,50.875)"/>
<path d="M0 0 C1.65 0 3.3 0 5 0 C6 1 6 1 6.098 4.816 C6.091 6.398 6.079 7.981 6.062 9.562 C6.058 10.369 6.053 11.175 6.049 12.006 C6.037 14.004 6.019 16.002 6 18 C3.545 15.545 3.38 14.422 3 11 C3.269 8.658 3.59 6.321 4 4 C3.34 3.67 2.68 3.34 2 3 C1.67 7.29 1.34 11.58 1 16 C0.67 16 0.34 16 0 16 C0 10.72 0 5.44 0 0 Z " fill="#FCD9D2" transform="translate(247,44)"/>
<path d="M0 0 C1.915 -0.108 3.833 -0.186 5.75 -0.25 C6.817 -0.296 7.885 -0.343 8.984 -0.391 C12 0 12 0 14.328 1.828 C17.356 5.761 17.091 9.194 17 14 C16.67 14 16.34 14 16 14 C15.914 13.397 15.827 12.793 15.738 12.172 C14.79 6.717 14.79 6.717 11.375 2.438 C10.199 1.726 10.199 1.726 9 1 C9 1.99 9 2.98 9 4 C5.976 3.412 2.982 2.773 0 2 C0 1.34 0 0.68 0 0 Z M4 4 C4.33 4 4.66 4 5 4 C5 7.96 5 11.92 5 16 C2.764 12.647 2.827 12.093 3.375 8.312 C3.486 7.504 3.597 6.696 3.711 5.863 C3.806 5.248 3.902 4.634 4 4 Z " fill="#F9DAD5" transform="translate(129,19)"/>
<path d="M0 0 C4.29 0 8.58 0 13 0 C12.67 1.65 12.34 3.3 12 5 C10.02 5 8.04 5 6 5 C6 4.67 6 4.34 6 4 C6.804 3.876 7.609 3.752 8.438 3.625 C9.283 3.419 10.129 3.212 11 3 C11.33 2.34 11.66 1.68 12 1 C8.04 1 4.08 1 0 1 C0 0.67 0 0.34 0 0 Z M5 5 C5.33 5.99 5.66 6.98 6 8 C7.98 8 9.96 8 12 8 C11.67 9.65 11.34 11.3 11 13 C9.35 13 7.7 13 6 13 C5.67 10.36 5.34 7.72 5 5 Z " fill="#FBD7D1" transform="translate(160,44)"/>
<path d="M0 0 C0.866 0.495 0.866 0.495 1.75 1 C4.199 2.271 4.199 2.271 8 2 C8.33 8.27 8.66 14.54 9 21 C7.68 21.33 6.36 21.66 5 22 C3.652 22.637 2.314 23.296 1 24 C2.684 20.243 2.684 20.243 4.625 18.75 C6.55 16.299 6.413 14.031 6.285 11 C5.862 8.035 4.937 6.271 3 4 C0.429 2.653 0.429 2.653 -2 2 C-1.34 1.34 -0.68 0.68 0 0 Z " fill="#B94449" transform="translate(229,42)"/>
<path d="M0 0 C0.33 0 0.66 0 1 0 C1.206 1.237 1.412 2.475 1.625 3.75 C2.502 7.296 2.89 7.909 5.875 10.375 C6.906 10.911 7.938 11.448 9 12 C9.784 12.412 10.567 12.825 11.375 13.25 C11.911 13.498 12.448 13.745 13 14 C12.01 14.495 12.01 14.495 11 15 C8.935 14.071 7.03 12.945 5.07 11.812 C2.556 10.826 1.499 11.083 -1 12 C-2.207 12.557 -2.207 12.557 -3.438 13.125 C-6.407 14.139 -8.024 13.85 -11 13 C-11 12.67 -11 12.34 -11 12 C-8.36 11.67 -5.72 11.34 -3 11 C-1.417 5.522 -1.417 5.522 0 0 Z " fill="#C23B42" transform="translate(106,53)"/>
<path d="M0 0 C4.29 0 8.58 0 13 0 C12.67 1.65 12.34 3.3 12 5 C10.02 5 8.04 5 6 5 C6.99 4.34 7.98 3.68 9 3 C7.4 1.2 7.4 1.2 1 1 C1 6.28 1 11.56 1 17 C0.67 17 0.34 17 0 17 C0 11.39 0 5.78 0 0 Z M6 8 C8 9 8 9 8 9 Z " fill="#FEE2DD" transform="translate(272,44)"/>
<path d="M0 0 C0.959 0.193 1.918 0.387 2.906 0.586 C3.865 0.764 4.824 0.942 5.812 1.125 C8.499 1.991 9.643 2.805 11.406 4.961 C9.137 5.21 6.866 5.434 4.594 5.648 C3.329 5.776 2.065 5.904 0.762 6.035 C-2.594 5.961 -2.594 5.961 -4.543 4.48 C-4.89 3.979 -5.236 3.478 -5.594 2.961 C-3.77 0.534 -3.108 -0.047 0 0 Z " fill="#D92A2F" transform="translate(174.59375,38.0390625)"/>
<path d="M0 0 C3 2 3 2 4 5 C4.516 5.516 5.031 6.031 5.562 6.562 C6.037 7.037 6.511 7.511 7 8 C7 8.66 7 9.32 7 10 C8.98 10.66 10.96 11.32 13 12 C13 12.66 13 13.32 13 14 C14.32 14.33 15.64 14.66 17 15 C17 15.66 17 16.32 17 17 C10.612 16.068 7.757 13.227 3.668 8.332 C1.761 5.666 0.659 3.215 0 0 Z " fill="#FCDBD5" transform="translate(24,49)"/>
<path d="M0 0 C0.33 0.66 0.66 1.32 1 2 C0.34 1.67 -0.32 1.34 -1 1 C-0.67 0.67 -0.34 0.34 0 0 Z M8 1 C9.65 1 11.3 1 13 1 C12.67 1.66 12.34 2.32 12 3 C11.34 3 10.68 3 10 3 C9.856 4.134 9.711 5.269 9.562 6.438 C9 10 9 10 8 11 C5.661 10.713 3.326 10.381 1 10 C0.375 7.125 0.375 7.125 0 4 C0.66 3.34 1.32 2.68 2 2 C2.33 3.98 2.66 5.96 3 8 C4.65 8 6.3 8 8 8 C8 5.69 8 3.38 8 1 Z " fill="#C43F43" transform="translate(143,56)"/>
<path d="M0 0 C0.66 0.66 1.32 1.32 2 2 C1.408 2.026 0.817 2.052 0.207 2.078 C-3.754 2.362 -6.495 2.716 -10 4.688 C-12.445 7.514 -12.693 9.319 -13 13 C-13.317 14.337 -13.643 15.673 -14 17 C-15.202 13.394 -15.327 10.79 -15 7 C-11.063 0.673 -7.301 -0.541 0 0 Z " fill="#F7C9C4" transform="translate(101,43)"/>
<path d="M0 0 C2.236 3.353 2.173 3.907 1.625 7.688 C1.514 8.496 1.403 9.304 1.289 10.137 C1.194 10.752 1.098 11.366 1 12 C-0.32 11.67 -1.64 11.34 -3 11 C-3.369 3.492 -3.369 3.492 -1.5 1 C-1.005 0.67 -0.51 0.34 0 0 Z M-2 3 C-1 5 -1 5 -1 5 Z M0 14 C0.33 14.66 0.66 15.32 1 16 C0.34 15.67 -0.32 15.34 -1 15 C-0.67 14.67 -0.34 14.34 0 14 Z " fill="#FAD1CB" transform="translate(59,22)"/>
<path d="M0 0 C0.66 1.32 1.32 2.64 2 4 C1.01 4.495 1.01 4.495 0 5 C0 3.35 0 1.7 0 0 Z M2 4 C4 5 4 5 4 5 Z M4 5 C4.66 5 5.32 5 6 5 C6 5.99 6 6.98 6 8 C7.98 8 9.96 8 12 8 C11.67 9.65 11.34 11.3 11 13 C7.37 13 3.74 13 0 13 C0 12.67 0 12.34 0 12 C2.051 11.772 4.102 11.544 6.152 11.316 C8.011 11.181 8.011 11.181 9 10 C7.02 9.34 5.04 8.68 3 8 C3.33 7.01 3.66 6.02 4 5 Z " fill="#FDDFD8" transform="translate(175,52)"/>
<path d="M0 0 C2 0 2 0 4.625 2.25 C7 5 7 5 7 9 C5.188 9.625 5.188 9.625 3 10 C2.01 9.34 1.02 8.68 0 8 C-0.408 5.288 -0.133 2.756 0 0 Z " fill="#5C4073" transform="translate(47,29)"/>
<path d="M0 0 C5.212 -0.427 5.212 -0.427 8 0 C10.125 2.062 10.125 2.062 11 5 C10.188 8.812 10.188 8.812 9 12 C6.36 10.68 3.72 9.36 1 8 C1 7.34 1 6.68 1 6 C3.31 6 5.62 6 8 6 C8 5.01 8 4.02 8 3 C5.36 2.34 2.72 1.68 0 1 C0 0.67 0 0.34 0 0 Z " fill="#C44144" transform="translate(191,17)"/>
<path d="M0 0 C4.62 0 9.24 0 14 0 C15 3 15 3 13.562 6.188 C12.789 7.58 12.789 7.58 12 9 C10.02 9 8.04 9 6 9 C6 8.01 6 7.02 6 6 C7.65 5.67 9.3 5.34 11 5 C11.33 3.68 11.66 2.36 12 1 C8.04 1 4.08 1 0 1 C0 0.67 0 0.34 0 0 Z " fill="#C3494D" transform="translate(175,43)"/>
<path d="M0 0 C-0.33 0.99 -0.66 1.98 -1 3 C-3.32 4.031 -5.654 5.029 -8 6 C-10.759 7.931 -10.958 8.807 -11.688 12.188 C-11.791 13.116 -11.894 14.044 -12 15 C-12.33 15 -12.66 15 -13 15 C-13.488 7.802 -13.488 7.802 -11.25 4.125 C-7.527 0.609 -5.126 -0.285 0 0 Z " fill="#F6BFB8" transform="translate(227,43)"/>
<path d="M0 0 C1.32 0.33 2.64 0.66 4 1 C5.417 5.251 4.193 7.719 3 12 C2.01 12 1.02 12 0 12 C0 8.04 0 4.08 0 0 Z " fill="#FDFAF9" transform="translate(149,26)"/>
<path d="M0 0 C0 1.32 0 2.64 0 4 C-2.64 4 -5.28 4 -8 4 C-7.67 3.01 -7.34 2.02 -7 1 C-4.537 -0.231 -2.72 -0.072 0 0 Z M-10 3 C-9.34 3.33 -8.68 3.66 -8 4 C-8 5.32 -8 6.64 -8 8 C-8.66 8.66 -9.32 9.32 -10 10 C-11 9 -11 9 -11.125 6.5 C-11 4 -11 4 -10 3 Z " fill="#FDFBFA" transform="translate(268,44)"/>
<path d="M0 0 C6.469 0.61 6.469 0.61 8.875 2.375 C11.638 6.365 11.076 10.366 11 15 C8.386 12.98 7.971 11.876 7.188 8.562 C5.721 4.164 3.945 3.23 0 1 C0 0.67 0 0.34 0 0 Z " fill="#F8C9C3" transform="translate(225,44)"/>
<path d="M0 0 C0.66 0 1.32 0 2 0 C1.67 1.65 1.34 3.3 1 5 C-0.65 5 -2.3 5 -4 5 C-3.67 4.34 -3.34 3.68 -3 3 C-1.68 3 -0.36 3 1 3 C0.67 2.01 0.34 1.02 0 0 Z M-4 8 C-1.69 8 0.62 8 3 8 C2.67 9.65 2.34 11.3 2 13 C-1.96 13 -5.92 13 -10 13 C-10 12.67 -10 12.34 -10 12 C-9.29 11.951 -8.579 11.902 -7.848 11.852 C-6.469 11.739 -6.469 11.739 -5.062 11.625 C-4.146 11.555 -3.229 11.486 -2.285 11.414 C-1.154 11.209 -1.154 11.209 0 11 C0.33 10.34 0.66 9.68 1 9 C-0.65 9 -2.3 9 -4 9 C-4 8.67 -4 8.34 -4 8 Z " fill="#FBD0CB" transform="translate(282,52)"/>
<path d="M0 0 C0.99 1.485 0.99 1.485 2 3 C4.318 5.76 6.619 6.812 10 8 C10 8.66 10 9.32 10 10 C7.03 9.67 4.06 9.34 1 9 C0.67 9.66 0.34 10.32 0 11 C0 7.37 0 3.74 0 0 Z " fill="#BC3D41" transform="translate(254,49)"/>
<path d="M0 0 C1.32 0 2.64 0 4 0 C6.25 2.5 6.25 2.5 8 5 C4.306 6.231 1.794 5.644 -2 5 C-1.125 1.125 -1.125 1.125 0 0 Z M10 3 C10.33 3.66 10.66 4.32 11 5 C10.34 4.67 9.68 4.34 9 4 C9.33 3.67 9.66 3.34 10 3 Z " fill="#DE292C" transform="translate(116,37)"/>
<path d="M0 0 C1.675 0.286 3.344 0.618 5 1 C5 5 5 5 3.5 6.75 C3.005 7.163 2.51 7.575 2 8 C1.01 7.67 0.02 7.34 -1 7 C-1.043 5 -1.041 3 -1 1 C-0.67 0.67 -0.34 0.34 0 0 Z " fill="#F8CDC7" transform="translate(154,22)"/>
<path d="M0 0 C-0.33 2.64 -0.66 5.28 -1 8 C-1.99 8.33 -2.98 8.66 -4 9 C-6 6 -6 6 -5.812 3.938 C-4.642 1.147 -3.051 0 0 0 Z M-1 8 C-1 8.99 -1 9.98 -1 11 C-1.66 10.34 -2.32 9.68 -3 9 C-2.34 8.67 -1.68 8.34 -1 8 Z " fill="#FDF5F3" transform="translate(93,50)"/>
<path d="M0 0 C0.66 0.33 1.32 0.66 2 1 C4.211 1.105 4.211 1.105 7 0 C5.125 3.875 5.125 3.875 4 5 C1.98 5.072 -0.042 5.084 -2.062 5.062 C-3.167 5.053 -4.272 5.044 -5.41 5.035 C-6.692 5.018 -6.692 5.018 -8 5 C-7.67 4.01 -7.34 3.02 -7 2 C-4.525 2.99 -4.525 2.99 -2 4 C-2 3.01 -2 2.02 -2 1 C-1.34 0.67 -0.68 0.34 0 0 Z " fill="#FDE2DC" transform="translate(137,34)"/>
<path d="M0 0 C0.66 0 1.32 0 2 0 C4.32 3.664 4.268 6.854 4.25 11.125 C4.258 12.985 4.258 12.985 4.266 14.883 C4 18 4 18 2 20 C1.67 19.01 1.34 18.02 1 17 C1.66 17 2.32 17 3 17 C2.886 15.541 2.758 14.083 2.625 12.625 C2.555 11.813 2.486 11.001 2.414 10.164 C2.171 7.797 2.171 7.797 0 6 C-0.125 2.875 -0.125 2.875 0 0 Z " fill="#FEEFEA" transform="translate(70,29)"/>
<path d="M0 0 C0.66 0.33 1.32 0.66 2 1 C1.01 1.99 0.02 2.98 -1 4 C-0.67 2.68 -0.34 1.36 0 0 Z M-2 4 C-1.67 4 -1.34 4 -1 4 C-1 6.31 -1 8.62 -1 11 C-1.99 11 -2.98 11 -4 11 C-3.125 6.25 -3.125 6.25 -2 4 Z M-5 11 C-4.67 11 -4.34 11 -4 11 C-3.67 14.96 -3.34 18.92 -3 23 C-3.66 23 -4.32 23 -5 23 C-5 19.04 -5 15.08 -5 11 Z " fill="#FEF1EC" transform="translate(29,26)"/>
<path d="M0 0 C2.293 0.129 2.293 0.129 5 1 C6.801 3.652 6.801 3.652 8.312 6.938 C8.824 8.019 9.336 9.101 9.863 10.215 C11 13 11 13 11 15 C9.094 14.281 9.094 14.281 7 13 C6.017 10.728 5.499 8.494 4.906 6.094 C4.162 3.823 4.162 3.823 1.906 2.719 C0.963 2.363 0.963 2.363 0 2 C0 1.34 0 0.68 0 0 Z " fill="#FCE1DC" transform="translate(172,19)"/>
<path d="M0 0 C0.639 0.495 1.279 0.99 1.938 1.5 C5.98 3.48 9.563 3.611 14 3 C16.217 2.051 16.217 2.051 18 1 C16.25 4.875 16.25 4.875 14 6 C9.341 6.558 5.999 6.612 1.938 4.125 C0 2 0 2 0 0 Z " fill="#FBD7D1" transform="translate(108,59)"/>
<path d="M0 0 C1.301 1.707 1.301 1.707 2.312 3.812 C2.659 4.5 3.006 5.187 3.363 5.895 C4.103 8.341 3.83 9.618 3 12 C2.685 11.29 2.371 10.579 2.047 9.848 C1.405 8.469 1.405 8.469 0.75 7.062 C0.332 6.146 -0.085 5.229 -0.516 4.285 C-1.786 1.836 -1.786 1.836 -4.172 1.184 C-4.775 1.123 -5.378 1.062 -6 1 C-6.66 2.98 -7.32 4.96 -8 7 C-8.33 7 -8.66 7 -9 7 C-9.312 4.688 -9.312 4.688 -9 2 C-5.822 -0.649 -3.875 -1.588 0 0 Z " fill="#BD4449" transform="translate(178,18)"/>
<path d="M0 0 C1.65 1.65 3.3 3.3 5 5 C2 6 2 6 -0.188 5.062 C-0.786 4.712 -1.384 4.361 -2 4 C-1.34 2.68 -0.68 1.36 0 0 Z M10.688 2.375 C11.451 2.581 12.214 2.788 13 3 C12.67 3.66 12.34 4.32 12 5 C9.69 4.67 7.38 4.34 5 4 C8 2 8 2 10.688 2.375 Z " fill="#DE282C" transform="translate(155,38)"/>
<path d="M0 0 C0.33 0 0.66 0 1 0 C1 3.63 1 7.26 1 11 C1.66 11 2.32 11 3 11 C3.66 9.35 4.32 7.7 5 6 C5.33 6 5.66 6 6 6 C6 8.31 6 10.62 6 13 C4.344 13.382 2.675 13.714 1 14 C0 13 0 13 -0.098 10.059 C-0.086 8.864 -0.074 7.669 -0.062 6.438 C-0.053 5.24 -0.044 4.042 -0.035 2.809 C-0.024 1.882 -0.012 0.955 0 0 Z " fill="#FDDCD6" transform="translate(145,51)"/>
<path d="M0 0 C2.038 1.274 4.039 2.611 6 4 C6 4.66 6 5.32 6 6 C3.69 6.33 1.38 6.66 -1 7 C-1.66 5.68 -2.32 4.36 -3 3 C-2.01 2.01 -1.02 1.02 0 0 Z " fill="#DE282D" transform="translate(47,54)"/>
<path d="M0 0 C1.32 0.33 2.64 0.66 4 1 C3.794 1.578 3.587 2.155 3.375 2.75 C2.913 5.52 3.571 6.646 5 9 C1.597 7.988 0.243 7.352 -1.812 4.375 C-2.204 3.591 -2.596 2.808 -3 2 C-2.01 2 -1.02 2 0 2 C0 1.34 0 0.68 0 0 Z " fill="#F0B1AB" transform="translate(51,26)"/>
<path d="M0 0 C1.65 0 3.3 0 5 0 C3.02 0.99 3.02 0.99 1 2 C0.67 1.34 0.34 0.68 0 0 Z M5 1 C5.33 1 5.66 1 6 1 C6 3.31 6 5.62 6 8 C5.67 8 5.34 8 5 8 C5 5.69 5 3.38 5 1 Z M6 8 C7.32 8 8.64 8 10 8 C10 9.65 10 11.3 10 13 C8.68 13 7.36 13 6 13 C6 11.35 6 9.7 6 8 Z M5 13 C6 17 6 17 6 17 Z " fill="#FDE4DE" transform="translate(196,44)"/>
<path d="M0 0 C1.98 0 3.96 0 6 0 C6 0.33 6 0.66 6 1 C4.35 1 2.7 1 1 1 C0.67 1.99 0.34 2.98 0 4 C0 2.68 0 1.36 0 0 Z M1 4 C2.98 4 4.96 4 7 4 C6.67 5.65 6.34 7.3 6 9 C4.35 9 2.7 9 1 9 C1 8.34 1 7.68 1 7 C1.99 7 2.98 7 4 7 C3.01 6.01 2.02 5.02 1 4 Z " fill="#FEE9E4" transform="translate(135,48)"/>
<path d="M0 0 C0.784 0.041 1.567 0.083 2.375 0.125 C2.705 0.785 3.035 1.445 3.375 2.125 C4.365 2.455 5.355 2.785 6.375 3.125 C6.375 4.775 6.375 6.425 6.375 8.125 C5.715 7.795 5.055 7.465 4.375 7.125 C4.375 6.465 4.375 5.805 4.375 5.125 C1.405 4.135 -1.565 3.145 -4.625 2.125 C-2.625 0.125 -2.625 0.125 0 0 Z " fill="#FDFBFB" transform="translate(119.625,44.875)"/>
<path d="M0 0 C3.3 0.33 6.6 0.66 10 1 C9.691 1.804 9.381 2.609 9.062 3.438 C7.814 7.622 7.366 11.663 7 16 C6.67 16 6.34 16 6 16 C5.67 11.38 5.34 6.76 5 2 C3.35 1.67 1.7 1.34 0 1 C0 0.67 0 0.34 0 0 Z " fill="#C8575B" transform="translate(237,43)"/>
<path d="M0 0 C-1 3 -1 3 -3.062 4.188 C-3.702 4.456 -4.341 4.724 -5 5 C-7.019 3.696 -9.019 2.362 -11 1 C-11 0.67 -11 0.34 -11 0 C-7.018 -1.054 -4.018 -0.841 0 0 Z " fill="#DE292C" transform="translate(112,41)"/>
<path d="M0 0 C0.33 0 0.66 0 1 0 C1 3.3 1 6.6 1 10 C2.98 10 4.96 10 7 10 C7.33 9.34 7.66 8.68 8 8 C8 8.99 8 9.98 8 11 C7 12 7 12 4.062 12.25 C3.052 12.168 2.041 12.085 1 12 C-1 9 -1 9 -0.625 6.812 C-0.419 6.214 -0.213 5.616 0 5 C-0.66 5 -1.32 5 -2 5 C-1.34 3.35 -0.68 1.7 0 0 Z " fill="#C24247" transform="translate(99,29)"/>
<path d="M0 0 C1.226 0.014 1.226 0.014 2.477 0.027 C3.416 0.045 3.416 0.045 4.375 0.062 C5.035 2.043 5.695 4.023 6.375 6.062 C5.715 6.062 5.055 6.062 4.375 6.062 C3.715 5.072 3.055 4.082 2.375 3.062 C-0.431 2.782 -2.091 2.795 -4.625 4.062 C-5.285 3.733 -5.945 3.402 -6.625 3.062 C-6.625 2.402 -6.625 1.742 -6.625 1.062 C-4.22 -0.14 -2.675 -0.038 0 0 Z " fill="#FDFBFB" transform="translate(155.625,19.9375)"/>
<path d="M0 0 C2.312 -0.312 2.312 -0.312 5 0 C6.875 2.313 6.875 2.313 8 5 C7.67 5.99 7.34 6.98 7 8 C6.67 6.68 6.34 5.36 6 4 C5.34 4 4.68 4 4 4 C4 3.34 4 2.68 4 2 C3.01 2 2.02 2 1 2 C0.34 3.98 -0.32 5.96 -1 8 C-1.66 8 -2.32 8 -3 8 C-1.125 2.25 -1.125 2.25 0 0 Z " fill="#FAD4CD" transform="translate(115,19)"/>
<path d="M0 0 C0.99 0.33 1.98 0.66 3 1 C3 2.65 3 4.3 3 6 C2.01 6.33 1.02 6.66 0 7 C-0.99 6.01 -1.98 5.02 -3 4 C-2.67 3.01 -2.34 2.02 -2 1 C-1.34 0.67 -0.68 0.34 0 0 Z " fill="#DE282C" transform="translate(117,51)"/>
<path d="M0 0 C0.66 0.66 1.32 1.32 2 2 C1.34 2 0.68 2 0 2 C0.023 2.626 0.046 3.253 0.07 3.898 C0.088 4.716 0.106 5.533 0.125 6.375 C0.148 7.187 0.171 7.999 0.195 8.836 C0 11 0 11 -2 13 C-2.99 11.68 -3.98 10.36 -5 9 C-4.34 9 -3.68 9 -3 9 C-3 6.36 -3 3.72 -3 1 C-2.01 0.67 -1.02 0.34 0 0 Z " fill="#EC8C6B" transform="translate(57,21)"/>
<path d="M0 0 C0 0.33 0 0.66 0 1 C-1.65 1 -3.3 1 -5 1 C-5 1.66 -5 2.32 -5 3 C-5.99 3.33 -6.98 3.66 -8 4 C-8.688 6.354 -8.688 6.354 -9 9 C-8.01 10.485 -8.01 10.485 -7 12 C-8.32 11.34 -9.64 10.68 -11 10 C-11.318 6.504 -11.396 4.603 -9.438 1.625 C-6.183 -0.545 -3.829 -0.295 0 0 Z " fill="#FAD1CB" transform="translate(197,18)"/>
<path d="M0 0 C5 1 5 1 6 2 C6.041 4.333 6.042 6.667 6 9 C5.67 9 5.34 9 5 9 C4.876 8.031 4.752 7.061 4.625 6.062 C4.316 4.547 4.316 4.547 4 3 C3.34 2.67 2.68 2.34 2 2 C1.67 5.3 1.34 8.6 1 12 C0.67 12 0.34 12 0 12 C0 8.04 0 4.08 0 0 Z " fill="#D17272" transform="translate(134,23)"/>
<path d="M0 0 C-0.33 0.66 -0.66 1.32 -1 2 C-2.145 2.186 -2.145 2.186 -3.312 2.375 C-6.595 3.138 -7.821 4.499 -10 7 C-10.99 6.67 -11.98 6.34 -13 6 C-13.688 3.938 -13.688 3.938 -14 2 C-11.525 2.99 -11.525 2.99 -9 4 C-9 3.34 -9 2.68 -9 2 C-3.375 -1.125 -3.375 -1.125 0 0 Z " fill="#C03E43" transform="translate(107,17)"/>
<path d="M0 0 C0.66 0.33 1.32 0.66 2 1 C1.34 2.98 0.68 4.96 0 7 C-1.044 3.867 -0.934 3.01 0 0 Z M-8 3 C-7.34 3.99 -6.68 4.98 -6 6 C-3.437 6.73 -3.437 6.73 -1 7 C-1.33 7.99 -1.66 8.98 -2 10 C-4.886 9.602 -5.822 9.21 -7.75 6.938 C-8.162 6.298 -8.575 5.659 -9 5 C-8.67 4.34 -8.34 3.68 -8 3 Z " fill="#C73539" transform="translate(137,58)"/>
<path d="M0 0 C1.65 0 3.3 0 5 0 C5.562 1.937 5.562 1.937 6 4 C5 5 5 5 2.496 5.098 C0.982 5.08 0.982 5.08 -0.562 5.062 C-1.574 5.053 -2.586 5.044 -3.629 5.035 C-4.411 5.024 -5.194 5.012 -6 5 C-2.484 3.058 -0.028 2.817 4 3 C4 2.34 4 1.68 4 1 C3.01 1.33 2.02 1.66 1 2 C0.67 1.34 0.34 0.68 0 0 Z " fill="#FEE0DA" transform="translate(166,60)"/>
<path d="M0 0 C0.99 0.33 1.98 0.66 3 1 C3.33 2.98 3.66 4.96 4 7 C3.67 6.34 3.34 5.68 3 5 C2.01 6.485 2.01 6.485 1 8 C-0.32 6.02 -1.64 4.04 -3 2 C-2.01 1.34 -1.02 0.68 0 0 Z " fill="#C8413F" transform="translate(42,30)"/>
<path d="M0 0 C0.99 0.33 1.98 0.66 3 1 C6.843 1.14 10.317 1.179 14 0 C13.67 0.99 13.34 1.98 13 3 C9.976 4.512 7.338 4.173 4 4 C1.562 3 1.562 3 0 2 C0 1.34 0 0.68 0 0 Z " fill="#C5454A" transform="translate(238,63)"/>
<path d="M0 0 C0.33 0 0.66 0 1 0 C1.182 0.626 1.364 1.253 1.551 1.898 C1.802 2.716 2.054 3.533 2.312 4.375 C2.556 5.187 2.8 5.999 3.051 6.836 C3.914 9.332 3.914 9.332 7 11 C7 11.66 7 12.32 7 13 C3.721 12.435 2.066 11.63 0 9 C-0.293 6.738 -0.293 6.738 -0.188 4.312 C-0.16 3.504 -0.133 2.696 -0.105 1.863 C-0.071 1.248 -0.036 0.634 0 0 Z " fill="#FEDDD7" transform="translate(215,51)"/>
<path d="M0 0 C0 2.31 0 4.62 0 7 C-2.667 7 -5.333 7 -8 7 C-8.33 8.32 -8.66 9.64 -9 11 C-9 9.35 -9 7.7 -9 6 C-7.35 5.67 -5.7 5.34 -4 5 C-3.814 4.041 -3.814 4.041 -3.625 3.062 C-3.419 2.382 -3.213 1.701 -3 1 C-1 0 -1 0 0 0 Z " fill="#C1585B" transform="translate(145,51)"/>
<path d="M0 0 C0.99 0.495 0.99 0.495 2 1 C2 1.66 2 2.32 2 3 C2.66 3.33 3.32 3.66 4 4 C3.67 4.66 3.34 5.32 3 6 C3.99 5.67 4.98 5.34 6 5 C5.67 5.99 5.34 6.98 5 8 C3.35 7.67 1.7 7.34 0 7 C0 4.69 0 2.38 0 0 Z " fill="#FBD8D1" transform="translate(206,57)"/>
<path d="M0 0 C1.98 0 3.96 0 6 0 C5.67 1.65 5.34 3.3 5 5 C3.35 5 1.7 5 0 5 C0 3.333 0 1.667 0 0 Z " fill="#FBDAD5" transform="translate(181,52)"/>
<path d="M0 0 C0.33 0 0.66 0 1 0 C1 4.29 1 8.58 1 13 C-1 9 -1 9 -2 5.812 C-2.68 2.871 -2.68 2.871 -5 2 C-3.68 2.33 -2.36 2.66 -1 3 C-0.67 2.01 -0.34 1.02 0 0 Z " fill="#C86463" transform="translate(271,50)"/>
<path d="M0 0 C1.65 0 3.3 0 5 0 C5.562 1.938 5.562 1.938 6 4 C5.67 4.33 5.34 4.66 5 5 C3.475 4.911 1.953 4.755 0.438 4.562 C-0.802 4.41 -0.802 4.41 -2.066 4.254 C-2.704 4.17 -3.343 4.086 -4 4 C-4 3.67 -4 3.34 -4 3 C-1.36 3 1.28 3 4 3 C2.68 2.34 1.36 1.68 0 1 C0 0.67 0 0.34 0 0 Z " fill="#FDE4DE" transform="translate(99,45)"/>
<path d="M0 0 C1.65 0.33 3.3 0.66 5 1 C4.67 2.32 4.34 3.64 4 5 C2.35 4.67 0.7 4.34 -1 4 C-0.67 2.68 -0.34 1.36 0 0 Z " fill="#EA9992" transform="translate(287,44)"/>
<path d="M0 0 C0 0.33 0 0.66 0 1 C-0.592 1.11 -1.183 1.219 -1.793 1.332 C-6.457 2.268 -9.991 3.327 -14 6 C-14.66 6 -15.32 6 -16 6 C-15 3 -15 3 -11.938 1.312 C-7.868 -0.309 -4.34 -0.228 0 0 Z " fill="#C2393F" transform="translate(229,42)"/>
<path d="M0 0 C0.722 0.124 1.444 0.247 2.188 0.375 C1.858 1.365 1.528 2.355 1.188 3.375 C1.188 2.715 1.188 2.055 1.188 1.375 C0.569 1.994 -0.05 2.613 -0.688 3.25 C-2.062 4.625 -3.438 6 -4.812 7.375 C-5.802 7.045 -6.793 6.715 -7.812 6.375 C-3.505 0.467 -3.505 0.467 0 0 Z " fill="#FDE4DE" transform="translate(103.8125,18.625)"/>
<path d="M0 0 C3.63 0 7.26 0 11 0 C10.67 0.99 10.34 1.98 10 3 C8.014 2.935 6.029 2.87 4.043 2.805 C1.686 2.867 1.686 2.867 -1 5 C-0.67 3.35 -0.34 1.7 0 0 Z " fill="#C34B4F" transform="translate(94,49)"/>
<path d="M0 0 C2 1 2 1 2 1 Z M3 0 C3.66 0 4.32 0 5 0 C5 2.97 5 5.94 5 9 C4.01 9 3.02 9 2 9 C1.67 8.01 1.34 7.02 1 6 C1.66 5.67 2.32 5.34 3 5 C2.722 4.041 2.722 4.041 2.438 3.062 C2.221 2.042 2.221 2.042 2 1 C2.33 0.67 2.66 0.34 3 0 Z M5 9 C7 10 7 10 7 10 Z " fill="#D9807E" transform="translate(42,29)"/>
<path d="M0 0 C2.64 0.99 5.28 1.98 8 3 C8 3.66 8 4.32 8 5 C1.848 4.414 1.848 4.414 0 4 C-0.33 3.34 -0.66 2.68 -1 2 C-0.67 1.34 -0.34 0.68 0 0 Z " fill="#BE484D" transform="translate(187,29)"/>
<path d="M0 0 C1.77 -0.054 3.541 -0.093 5.312 -0.125 C6.299 -0.148 7.285 -0.171 8.301 -0.195 C11 0 11 0 14 2 C14 2.66 14 3.32 14 4 C12.68 3.67 11.36 3.34 10 3 C10 2.34 10 1.68 10 1 C8.36 1.309 8.36 1.309 6.688 1.625 C3 2 3 2 0 0 Z " fill="#FCDBD5" transform="translate(112,44)"/>
<path d="M0 0 C1.279 -0.062 2.558 -0.124 3.875 -0.188 C4.954 -0.24 4.954 -0.24 6.055 -0.293 C6.697 -0.196 7.339 -0.1 8 0 C8.66 0.99 9.32 1.98 10 3 C8.375 3.688 8.375 3.688 6 4 C2.75 2.562 2.75 2.562 0 1 C0 0.67 0 0.34 0 0 Z " fill="#CB2F34" transform="translate(128,40)"/>
<path d="M0 0 C1.5 1.375 1.5 1.375 3 3 C3 3.66 3 4.32 3 5 C2.34 5 1.68 5 1 5 C0.67 3.35 0.34 1.7 0 0 Z M5 3 C6.32 3.33 7.64 3.66 9 4 C7.515 5.485 7.515 5.485 6 7 C5.01 6.67 4.02 6.34 3 6 C3.66 5.67 4.32 5.34 5 5 C5 4.34 5 3.68 5 3 Z M9 5 C12 6 12 6 12 6 Z " fill="#BB3E42" transform="translate(39,35)"/>
<path d="M0 0 C0.66 0 1.32 0 2 0 C2.33 1.65 2.66 3.3 3 5 C1.35 5.33 -0.3 5.66 -2 6 C-2 2 -2 2 0 0 Z " fill="#DB292B" transform="translate(144,37)"/>
<path d="M0 0 C6.152 0.586 6.152 0.586 8 1 C8.33 1.66 8.66 2.32 9 3 C5.622 3.845 3.325 4.108 0 3 C0 2.01 0 1.02 0 0 Z " fill="#FDFBFB" transform="translate(176,60)"/>
<path d="M0 0 C0 1.32 0 2.64 0 4 C-0.66 4 -1.32 4 -2 4 C-2 3.34 -2 2.68 -2 2 C-4.31 2.33 -6.62 2.66 -9 3 C-9 2.34 -9 1.68 -9 1 C-5.942 0.456 -3.112 0 0 0 Z M-6 4 C-2 5 -2 5 -2 5 Z " fill="#FEF2ED" transform="translate(104,59)"/>
<path d="M0 0 C1.107 3.322 0.972 5.641 0 9 C-0.66 9.66 -1.32 10.32 -2 11 C-2 7.7 -2 4.4 -2 1 C-1.34 0.67 -0.68 0.34 0 0 Z " fill="#FDFCFC" transform="translate(251,46)"/>
<path d="M0 0 C0.66 0 1.32 0 2 0 C2.8 3.287 3.097 4.71 2 8 C1.34 8 0.68 8 0 8 C-0.381 5.674 -0.713 3.339 -1 1 C-0.67 0.67 -0.34 0.34 0 0 Z " fill="#FDFBFB" transform="translate(239,46)"/>
<path d="M0 0 C1.32 0.33 2.64 0.66 4 1 C3.375 2.938 3.375 2.938 2 5 C-1.125 5.75 -1.125 5.75 -4 6 C-2.68 4.02 -1.36 2.04 0 0 Z " fill="#C25E63" transform="translate(56,33)"/>
<path d="M0 0 C3.3 0 6.6 0 10 0 C8.515 1.485 8.515 1.485 7 3 C3.875 2.812 3.875 2.812 1 2 C0.67 1.34 0.34 0.68 0 0 Z " fill="#C3383E" transform="translate(220,65)"/>
<path d="M0 0 C0.33 1.32 0.66 2.64 1 4 C-1.31 4 -3.62 4 -6 4 C-6 3.01 -6 2.02 -6 1 C-4.02 0.67 -2.04 0.34 0 0 Z " fill="#C24B4F" transform="translate(172,48)"/>
<path d="M0 0 C-0.33 0.99 -0.66 1.98 -1 3 C-3.31 3.33 -5.62 3.66 -8 4 C-8.33 3.34 -8.66 2.68 -9 2 C-5.865 0.142 -3.625 -0.201 0 0 Z " fill="#F7BEB6" transform="translate(227,43)"/>
<path d="M0 0 C3.875 0.875 3.875 0.875 5 2 C5.072 3.519 5.084 5.042 5.062 6.562 C5.053 7.389 5.044 8.215 5.035 9.066 C5.018 10.024 5.018 10.024 5 11 C4.01 11 3.02 11 2 11 C2.34 9.391 2.34 9.391 2.688 7.75 C3.358 4.07 3.358 4.07 1.562 1.562 C1.047 1.047 0.531 0.531 0 0 Z " fill="#C54B51" transform="translate(159,18)"/>
<path d="M0 0 C-0.33 0.66 -0.66 1.32 -1 2 C-4.3 2 -7.6 2 -11 2 C-7.753 -1.247 -4.255 -1.418 0 0 Z " fill="#F6C0B9" transform="translate(231,63)"/>
<path d="M0 0 C1.65 0 3.3 0 5 0 C5 0.33 5 0.66 5 1 C3.35 1 1.7 1 0 1 C0 0.67 0 0.34 0 0 Z M-2 2 C-1.67 2 -1.34 2 -1 2 C-1 3.98 -1 5.96 -1 8 C-1.99 8 -2.98 8 -4 8 C-3.125 3.125 -3.125 3.125 -2 2 Z " fill="#BF3A3E" transform="translate(207,43)"/>
<path d="M0 0 C2.64 0 5.28 0 8 0 C7.34 1.32 6.68 2.64 6 4 C4.35 3.67 2.7 3.34 1 3 C0.67 2.01 0.34 1.02 0 0 Z " fill="#B4484D" transform="translate(192,23)"/>
<path d="M0 0 C0.33 0 0.66 0 1 0 C0.886 1.626 0.758 3.251 0.625 4.875 C0.521 6.232 0.521 6.232 0.414 7.617 C0 10 0 10 -2 12 C-2 7.916 -1.847 3.694 0 0 Z " fill="#BD3D43" transform="translate(106,47)"/>
<path d="M0 0 C2.375 0.312 2.375 0.312 5 1 C5.66 1.99 6.32 2.98 7 4 C6.67 4.99 6.34 5.98 6 7 C1.125 2.25 1.125 2.25 0 0 Z " fill="#FBDBD5" transform="translate(172,19)"/>
<path d="M0 0 C0.66 0.33 1.32 0.66 2 1 C1.691 1.495 1.381 1.99 1.062 2.5 C-0.416 5.98 -0.624 9.24 -1 13 C-1.33 13 -1.66 13 -2 13 C-2.054 11.396 -2.093 9.792 -2.125 8.188 C-2.148 7.294 -2.171 6.401 -2.195 5.48 C-2 3 -2 3 0 0 Z " fill="#FCD9D3" transform="translate(109,46)"/>
<path d="M0 0 C2.131 1.065 3.366 2.292 5 4 C4.34 4.66 3.68 5.32 3 6 C2.01 5.34 1.02 4.68 0 4 C0 2.68 0 1.36 0 0 Z " fill="#FDF7F6" transform="translate(138,20)"/>
<path d="M0 0 C0.66 0.66 1.32 1.32 2 2 C1.34 2 0.68 2 0 2 C0 1.34 0 0.68 0 0 Z M2 0 C3.938 0.312 3.938 0.312 6 1 C6.33 1.99 6.66 2.98 7 4 C3.125 2.25 3.125 2.25 2 0 Z " fill="#FEF1EC" transform="translate(87,20)"/>
<path d="M0 0 C2.125 0.375 2.125 0.375 4 1 C2.725 3.549 1.566 3.868 -1 5 C-1.99 5.33 -2.98 5.66 -4 6 C-2.848 3.532 -1.952 1.952 0 0 Z " fill="#C74B4F" transform="translate(234,60)"/>
<path d="M0 0 C1.98 0 3.96 0 6 0 C6 0.99 6 1.98 6 3 C4.02 3 2.04 3 0 3 C0 2.01 0 1.02 0 0 Z " fill="#C46165" transform="translate(136,49)"/>
<path d="M0 0 C0.33 0 0.66 0 1 0 C2.125 6.75 2.125 6.75 1 9 C0.34 9 -0.32 9 -1 9 C-0.67 6.03 -0.34 3.06 0 0 Z " fill="#F5C2BE" transform="translate(55,42)"/>
<path d="M0 0 C0.99 0.495 0.99 0.495 2 1 C2.731 3.314 3.401 5.648 4 8 C2.68 7.34 1.36 6.68 0 6 C0 4.02 0 2.04 0 0 Z " fill="#F8D1CC" transform="translate(123,27)"/>
<path d="M0 0 C0.625 1.812 0.625 1.812 1 4 C0.01 5.485 0.01 5.485 -1 7 C-1.99 7 -2.98 7 -4 7 C-4 5 -4 5 -2.562 3.5 C-2.047 3.005 -1.531 2.51 -1 2 C-0.67 1.34 -0.34 0.68 0 0 Z " fill="#BC3B40" transform="translate(270,59)"/>
<path d="M0 0 C2 1 2 1 3.125 4.062 C3.414 5.032 3.703 6.001 4 7 C2.35 5.68 0.7 4.36 -1 3 C-0.67 2.01 -0.34 1.02 0 0 Z M4 7 C6 8 6 8 6 8 Z " fill="#BD464B" transform="translate(85,56)"/>
<path d="M0 0 C-1.229 3.688 -2.939 4.724 -6 7 C-5.688 4.625 -5.688 4.625 -5 2 C-2 0 -2 0 0 0 Z " fill="#F9D3CD" transform="translate(44,53)"/>
<path d="M0 0 C1.65 0 3.3 0 5 0 C4.67 1.65 4.34 3.3 4 5 C2.68 4.67 1.36 4.34 0 4 C0.99 4 1.98 4 3 4 C2.01 2.68 1.02 1.36 0 0 Z " fill="#FACDC7" transform="translate(153,44)"/>
<path d="M0 0 C0 0.99 0 1.98 0 3 C-2.438 2.625 -2.438 2.625 -5 2 C-5.33 1.34 -5.66 0.68 -6 0 C-3 -1 -3 -1 0 0 Z " fill="#C2343B" transform="translate(142,40)"/>
<path d="M0 0 C0.66 0 1.32 0 2 0 C1.67 1.98 1.34 3.96 1 6 C0.67 6 0.34 6 0 6 C0 4.02 0 2.04 0 0 Z M1 6 C2.32 6.99 3.64 7.98 5 9 C3.35 8.67 1.7 8.34 0 8 C0.33 7.34 0.66 6.68 1 6 Z " fill="#B83A40" transform="translate(107,32)"/>
<path d="M0 0 C0.33 0 0.66 0 1 0 C1.33 2.64 1.66 5.28 2 8 C1.01 8.33 0.02 8.66 -1 9 C-0.67 6.03 -0.34 3.06 0 0 Z " fill="#C56164" transform="translate(106,53)"/>
<path d="M0 0 C1.65 0 3.3 0 5 0 C5.33 0.99 5.66 1.98 6 3 C4.02 3 2.04 3 0 3 C0 2.01 0 1.02 0 0 Z " fill="#BF5558" transform="translate(278,57)"/>
<path d="M0 0 C1.65 0 3.3 0 5 0 C5 0.99 5 1.98 5 3 C3.35 3 1.7 3 0 3 C0 2.01 0 1.02 0 0 Z " fill="#BD565A" transform="translate(181,49)"/>
<path d="M0 0 C2.31 0 4.62 0 7 0 C5.75 1.562 5.75 1.562 4 3 C1.812 2.688 1.812 2.688 0 2 C0 1.34 0 0.68 0 0 Z " fill="#C35E61" transform="translate(262,49)"/>
<path d="M0 0 C0.99 0.33 1.98 0.66 3 1 C2.67 2.32 2.34 3.64 2 5 C0.68 4.67 -0.64 4.34 -2 4 C-1.34 2.68 -0.68 1.36 0 0 Z " fill="#FCD6CF" transform="translate(197,19)"/>
<path d="M0 0 C-1.812 1.562 -1.812 1.562 -4 3 C-4.99 2.67 -5.98 2.34 -7 2 C-7 1.34 -7 0.68 -7 0 C-4.333 -1.333 -2.833 -0.671 0 0 Z " fill="#FDFCFC" transform="translate(156,21)"/>
<path d="M0 0 C2.97 0.495 2.97 0.495 6 1 C6 1.66 6 2.32 6 3 C4.02 3 2.04 3 0 3 C0 2.01 0 1.02 0 0 Z " fill="#B24549" transform="translate(258,56)"/>
<path d="M0 0 C0.33 0 0.66 0 1 0 C1 3.3 1 6.6 1 10 C0.01 10 -0.98 10 -2 10 C-1.34 6.7 -0.68 3.4 0 0 Z " fill="#FCDBD5" transform="translate(127,49)"/>
<path d="M0 0 C1.65 0 3.3 0 5 0 C5 0.99 5 1.98 5 3 C3.35 3 1.7 3 0 3 C0 2.01 0 1.02 0 0 Z " fill="#C25F63" transform="translate(278,49)"/>
<path d="M0 0 C2.625 0.375 2.625 0.375 5 1 C4.67 1.66 4.34 2.32 4 3 C1.03 2.505 1.03 2.505 -2 2 C-1.34 1.34 -0.68 0.68 0 0 Z " fill="#DA2A2B" transform="translate(163,40)"/>
<path d="M0 0 C2.475 0.495 2.475 0.495 5 1 C4.01 1.33 3.02 1.66 2 2 C2 3.32 2 4.64 2 6 C1.34 6 0.68 6 0 6 C0 4.02 0 2.04 0 0 Z " fill="#F4BEB9" transform="translate(185,32)"/>
<path d="M0 0 C2.125 0.375 2.125 0.375 4 1 C3.01 1 2.02 1 1 1 C0.34 2.98 -0.32 4.96 -1 7 C-1.33 7 -1.66 7 -2 7 C-2.125 4.625 -2.125 4.625 -2 2 C-1.34 1.34 -0.68 0.68 0 0 Z " fill="#CB5B5C" transform="translate(171,18)"/>
<path d="M0 0 C1.5 1.312 1.5 1.312 3 3 C3 3.99 3 4.98 3 6 C2.34 6 1.68 6 1 6 C0.67 4.02 0.34 2.04 0 0 Z M2 1 C4 2 4 2 4 2 Z " fill="#FCE4DE" transform="translate(88,57)"/>
<path d="M0 0 C0.99 0.33 1.98 0.66 3 1 C2.67 2.32 2.34 3.64 2 5 C1.01 4.01 0.02 3.02 -1 2 C-0.67 1.34 -0.34 0.68 0 0 Z " fill="#E8BFC0" transform="translate(116,28)"/>
<path d="M0 0 C0.66 1.32 1.32 2.64 2 4 C1.34 4.66 0.68 5.32 0 6 C-0.99 4.68 -1.98 3.36 -3 2 C-2.34 2 -1.68 2 -1 2 C-0.67 1.34 -0.34 0.68 0 0 Z " fill="#E2918D" transform="translate(55,28)"/>
<path d="M0 0 C3.653 1.25 4.781 1.671 7 5 C3.347 3.75 2.219 3.329 0 0 Z " fill="#FDF0ED" transform="translate(49,30)"/>
<path d="M0 0 C0.33 0.99 0.66 1.98 1 3 C0.01 3.99 -0.98 4.98 -2 6 C-2.33 4.68 -2.66 3.36 -3 2 C-2.01 1.34 -1.02 0.68 0 0 Z " fill="#FDEDE7" transform="translate(114,26)"/>
<path d="M0 0 C0.99 0 1.98 0 3 0 C3 0.99 3 1.98 3 3 C1.68 2.67 0.36 2.34 -1 2 C-0.67 1.34 -0.34 0.68 0 0 Z " fill="#FEEAE4" transform="translate(51,23)"/>
<path d="M0 0 C0.99 0.33 1.98 0.66 3 1 C3 1.66 3 2.32 3 3 C1.68 3.33 0.36 3.66 -1 4 C-0.67 2.68 -0.34 1.36 0 0 Z " fill="#FEF1EC" transform="translate(280,52)"/>
<path d="M0 0 C1.32 0 2.64 0 4 0 C3.67 1.65 3.34 3.3 3 5 C0 1.125 0 1.125 0 0 Z " fill="#F6BEB9" transform="translate(281,44)"/>
<path d="M0 0 C2.475 0.495 2.475 0.495 5 1 C4.67 1.99 4.34 2.98 4 4 C2 3 2 3 0 0 Z " fill="#FCE3DE" transform="translate(264,44)"/>
<path d="M0 0 C0.99 0.99 1.98 1.98 3 3 C2.34 4.65 1.68 6.3 1 8 C0.67 8 0.34 8 0 8 C0 5.36 0 2.72 0 0 Z " fill="#C23C3F" transform="translate(93,30)"/>
<path d="M0 0 C2 1 2 1 2 1 Z M3 0 C3.66 0 4.32 0 5 0 C4.67 1.65 4.34 3.3 4 5 C3.34 3.68 2.68 2.36 2 1 C2.33 0.67 2.66 0.34 3 0 Z " fill="#DC8787" transform="translate(42,29)"/>
<path d="M0 0 C0.99 0 1.98 0 3 0 C3 1.32 3 2.64 3 4 C2.01 4 1.02 4 0 4 C0 2.68 0 1.36 0 0 Z " fill="#B04246" transform="translate(154,23)"/>
<path d="M0 0 C2.475 0.495 2.475 0.495 5 1 C5 1.99 5 2.98 5 4 C4.01 4.495 4.01 4.495 3 5 C3 3.68 3 2.36 3 1 C2.01 0.67 1.02 0.34 0 0 Z " fill="#FAD1CC" transform="translate(154,22)"/>
<path d="M0 0 C0.66 0.99 1.32 1.98 2 3 C0.02 3.99 0.02 3.99 -2 5 C-2.33 4.34 -2.66 3.68 -3 3 C-2.01 2.01 -1.02 1.02 0 0 Z " fill="#FCD0CA" transform="translate(232,58)"/>
<path d="M0 0 C0.99 0.33 1.98 0.66 3 1 C3 2.65 3 4.3 3 6 C0 2.25 0 2.25 0 0 Z " fill="#FBDDD7" transform="translate(267,55)"/>
<path d="M0 0 C0.66 1.32 1.32 2.64 2 4 C0.68 4 -0.64 4 -2 4 C-1.34 2.68 -0.68 1.36 0 0 Z " fill="#B7363B" transform="translate(143,47)"/>
<path d="M0 0 C0.99 0.33 1.98 0.66 3 1 C2.67 1.66 2.34 2.32 2 3 C1.34 2.67 0.68 2.34 0 2 C0 1.34 0 0.68 0 0 Z M-2 1 C-1.34 1.66 -0.68 2.32 0 3 C-0.99 3 -1.98 3 -3 3 C-2.67 2.34 -2.34 1.68 -2 1 Z " fill="#B64B4F" transform="translate(42,30)"/>
<path d="M0 0 C1.485 0.99 1.485 0.99 3 2 C3.188 4.625 3.188 4.625 3 7 C0 3.375 0 3.375 0 0 Z " fill="#FCE0DB" transform="translate(160,20)"/>
<path d="M0 0 C1.98 0.99 1.98 0.99 4 2 C4 2.66 4 3.32 4 4 C2.68 3.67 1.36 3.34 0 3 C0 2.01 0 1.02 0 0 Z " fill="#FCD1C9" transform="translate(218,60)"/>
<path d="M0 0 C0.99 0.33 1.98 0.66 3 1 C2.67 1.66 2.34 2.32 2 3 C0.68 2.67 -0.64 2.34 -2 2 C-1.34 1.34 -0.68 0.68 0 0 Z " fill="#DF282C" transform="translate(184,39)"/>
<path d="M0 0 C0.66 0.66 1.32 1.32 2 2 C1.01 3.485 1.01 3.485 0 5 C-0.66 5 -1.32 5 -2 5 C-1.34 3.35 -0.68 1.7 0 0 Z " fill="#FEE9E3" transform="translate(113,34)"/>
<path d="M0 0 C0.99 0.33 1.98 0.66 3 1 C2.34 1.66 1.68 2.32 1 3 C0.67 2.01 0.34 1.02 0 0 Z " fill="#FDFAFA" transform="translate(257,51)"/>
<path d="M0 0 C0.99 0.33 1.98 0.66 3 1 C2.34 1.66 1.68 2.32 1 3 C0.67 2.01 0.34 1.02 0 0 Z " fill="#BB5358" transform="translate(113,56)"/>
<path d="M0 0 C0.66 0.66 1.32 1.32 2 2 C1.01 2 0.02 2 -1 2 C-0.67 1.34 -0.34 0.68 0 0 Z " fill="#FEF4EF" transform="translate(251,55)"/>
</svg>